<?xml version="1.0" encoding="UTF-8"?>
<svg id="Layer_1" data-name="Layer 1" xmlns="http://www.w3.org/2000/svg" xmlns:xlink="http://www.w3.org/1999/xlink" viewBox="0 0 48 48">
  <defs>
    <style>
      .cls-1 {
        fill: none;
      }

      .cls-1, .cls-2, .cls-3 {
        stroke-width: 0px;
      }

      .cls-4 {
        clip-path: url(#clippath-1);
      }

      .cls-2 {
        fill: #f4a629;
      }

      .cls-2, .cls-3 {
        fill-rule: evenodd;
      }

      .cls-5 {
        clip-path: url(#clippath);
      }

      .cls-3 {
        fill: #fed11a;
      }
    </style>
    <clipPath id="clippath">
      <rect class="cls-1" x="4" y="4.01" width="40" height="39.98"/>
    </clipPath>
    <clipPath id="clippath-1">
      <rect class="cls-1" x="4" y="4.01" width="40" height="39.98"/>
    </clipPath>
  </defs>
  <g id="picto-umpratodos">
    <g class="cls-5">
      <g class="cls-4">
        <path class="cls-2" d="M13.45,8.67c.4.69,1.27.93,1.97.55h0s0,0,.01,0c0,0,0,0,.01,0h0c.68-.41.91-1.29.51-1.98-.4-.69-1.27-.93-1.97-.55h0s0,0-.01,0c0,0,0,0-.01,0h0c-.68.41-.91,1.29-.51,1.98M23.95,4.01s0,0-.01,0h0c-.79.02-1.43.66-1.43,1.46s.64,1.44,1.43,1.46h0s0,0,.01,0c0,0,0,0,.01,0h0c.79-.02,1.43-.66,1.43-1.46s-.64-1.44-1.43-1.46h0s0,0-.01,0M33.93,6.68s0,0-.01,0h0c-.69-.38-1.57-.14-1.97.55-.4.69-.17,1.57.51,1.98h0s0,0,.01,0c0,0,0,0,.01,0h0c.69.38,1.57.14,1.97-.55.4-.69.17-1.57-.51-1.98h0s0,0-.01,0M41.22,13.97s0,0,0-.01h0c-.41-.68-1.29-.91-1.98-.51-.69.4-.93,1.27-.55,1.97h0s0,0,0,.01c0,0,0,0,0,.01h0c.41.68,1.29.91,1.98.51.69-.4.93-1.28.55-1.97h0s0,0,0-.01M42.44,22.56s.07,0,.1,0c.8,0,1.44.64,1.46,1.43h0v.03h0c-.01.75-.6,1.37-1.34,1.43h0s0,0,0,0c-.04,0-.09,0-.13,0-.8,0-1.44-.64-1.46-1.43h0s0,0,0-.01,0,0,0-.01h0c.01-.76.62-1.38,1.37-1.43h0s0,0,0,0ZM41.25,34.02s0,0,0,.01h0c-.41.68-1.29.91-1.98.51-.69-.4-.93-1.27-.55-1.97h0s0,0,0-.01c0,0,0,0,0-.01h0c.41-.68,1.29-.91,1.98-.51.69.4.93,1.28.55,1.97h0s0,0,0,.01M33.96,41.32s0,0-.01,0h0c-.69.38-1.57.14-1.97-.55-.4-.69-.17-1.57.51-1.98h0s0,0,.01,0c0,0,0,0,.01,0h0c.69-.38,1.57-.14,1.97.55.4.69.17,1.57-.51,1.98h0s0,0-.01,0M23.98,43.99s0,0-.01,0h0c-.79-.02-1.43-.66-1.43-1.46s.64-1.44,1.43-1.46h0s.01,0,.01,0h.01c.79.02,1.43.66,1.43,1.46s-.64,1.44-1.43,1.46h0s0,0-.01,0M13.48,39.33c.4-.69,1.27-.93,1.97-.55,0,0,0,0,.01,0,0,0,0,0,.01,0h0c.68.41.91,1.29.51,1.98-.4.69-1.27.93-1.97.55h0s0,0-.01,0c0,0,0,0-.01,0h0c-.68-.41-.91-1.29-.51-1.98M7.24,32.03c.69-.4,1.57-.17,1.98.51h0s0,0,0,.01c0,0,0,0,0,.01h0c.38.69.14,1.57-.55,1.97-.69.4-1.57.17-1.98-.51h0s0-.01,0-.01c0,0,0,0,0-.01h0c-.38-.7-.14-1.57.55-1.97M6.75,23.3c.12.21.2.45.2.71h0v.03h0c-.02.79-.66,1.43-1.46,1.43-.55,0-1.04-.31-1.28-.76-.13-.21-.2-.46-.21-.72h0v-.03c.02-.79.66-1.43,1.46-1.43.56,0,1.04.31,1.29.77M7.21,15.97c.69.4,1.57.17,1.98-.51h0s0,0,0-.01c0,0,0,0,0-.01h0c.38-.69.14-1.57-.55-1.97-.69-.4-1.57-.17-1.98.51h0s0,0,0,.01c0,0,0,0,0,.01h0c-.38.7-.14,1.57.55,1.97"/>
        <path class="cls-3" d="M40.24,20.76s0,0,0,0c-.09-.07-.2-.11-.33-.11h-3.57l3.01-1.74c.11-.06.18-.15.23-.26t0,0s0,0,0,0c.2-.31.21-.72,0-1.08l-1.15-1.99v-.03s-1.16-1.99-1.16-1.99c-.2-.35-.57-.55-.94-.53,0,0,0,0,0,0,0,0,0,0,0,0-.11-.01-.23.01-.34.07l-2.9,1.67,1.68-2.9c.06-.11.08-.22.07-.34,0,0,0,0,0,0,0,0,0,0,0,0,.01-.36-.18-.73-.53-.94l-1.99-1.15h-.03s-1.99-1.16-1.99-1.16c-.35-.2-.77-.19-1.08,0h0s0,0,0,0c-.1.05-.19.12-.26.23l-1.7,2.94v-3.39c0-.12-.04-.23-.11-.33h0s0,0,0,0c-.17-.32-.52-.55-.93-.55h-4.62c-.41,0-.76.22-.93.55,0,0,0,0,0,0,0,0,0,0,0,0-.07.09-.11.2-.11.33v3.36l-1.68-2.92c-.06-.1-.15-.18-.26-.23h0s0,0,0,0c-.31-.2-.72-.21-1.08,0l-1.99,1.15h-.03s-1.99,1.16-1.99,1.16c-.35.2-.55.57-.53.94,0,0,0,0,0,0h0c-.01.12.01.23.07.34l1.7,2.94-2.94-1.7c-.11-.06-.22-.08-.34-.07,0,0,0,0,0,0,0,0,0,0,0,0-.36-.01-.73.18-.94.53l-1.15,1.99v.02s-1.16,1.99-1.16,1.99c-.2.35-.19.77,0,1.08,0,0,0,0,0,0,0,0,0,0,0,0,.05.1.12.19.23.26l2.94,1.69h-3.39c-.12,0-.23.04-.33.11,0,0,0,0,0,0-.32.17-.55.52-.55.93v4.62c0,.2.05.39.15.55.1.18.24.33.42.43h0s0,0,0,0c.09.07.2.11.33.11h3.39l-2.94,1.7c-.11.06-.18.15-.23.26,0,0,0,0,0,0,0,0,0,0,0,0-.19.31-.21.72,0,1.08l1.15,1.99v.03s1.16,1.99,1.16,1.99c.2.35.57.55.94.53h0c.11.01.23-.01.34-.07l2.94-1.7-1.7,2.94c-.06.11-.08.22-.07.34,0,0,0,0,0,0-.01.37.18.73.53.94l1.99,1.15h.03s1.99,1.16,1.99,1.16c.35.2.77.19,1.08,0,0,0,0,0,0,0h0c.1-.05.19-.13.25-.23l1.68-2.91v3.36c0,.12.04.23.11.33,0,0,0,0,0,0h0c.17.33.52.55.93.55h4.62c.41,0,.76-.22.93-.55,0,0,0,0,0,0,0,0,0,0,0,0,.07-.09.11-.2.11-.33v-3.39l1.7,2.94c.06.11.15.18.26.23t0,0c.31.19.72.21,1.08,0l1.99-1.15h.03s1.99-1.16,1.99-1.16c.35-.2.55-.57.53-.94,0,0,0,0,0,0h0c.01-.11-.01-.23-.07-.34l-1.68-2.9,2.9,1.67c.1.06.22.08.34.07,0,0,0,0,0,0,0,0,0,0,0,0,.36.01.73-.18.94-.53l1.15-1.99v-.02s1.16-1.99,1.16-1.99c.2-.35.19-.77,0-1.08,0,0,0,0,0,0t0,0c-.05-.1-.12-.19-.23-.26l-3.01-1.74h3.51s.04,0,.06,0c.11,0,.21-.04.29-.11h0c.32-.17.55-.52.55-.93v-4.62c0-.41-.22-.76-.55-.93M13.22,15.36c.04-.07.12-.09.19-.05,0,0,0,0,.01,0h0s2.64,1.52,2.64,1.52c.27.15.61.06.76-.2.03-.05.05-.09.06-.14h0c.04-.14.02-.29-.06-.42l-1.52-2.64h0s0,0,0-.01c-.04-.07-.02-.15.05-.19.06-.03.13-.02.17.02l1.95,3.38s.02.05.03.07l1.1,1.91-1.9-1.1s-.04-.02-.06-.03l-3.39-1.95s-.06-.11-.02-.17M10.52,21.79s0,0,.01,0h0s3.04,0,3.04,0c.31,0,.56-.25.56-.56,0-.1-.03-.19-.07-.27-.05-.11-.13-.2-.23-.27l-2.64-1.52h0s0,0-.01,0c-.07-.04-.09-.12-.05-.19.03-.06.1-.08.16-.06l3.38,1.95s.04.03.06.04l1.9,1.1h-2.19s-.05,0-.07,0h-3.91s-.05-.02-.07-.04c0-.01,0-.03,0-.04,0-.08.06-.14.14-.14M11.31,29.08c-.06.02-.13,0-.16-.06-.04-.07-.02-.15.05-.19,0,0,0,0,.01,0h0s2.64-1.52,2.64-1.52c.17-.1.26-.26.28-.44h0s0,0,0,0c0-.01,0-.03,0-.04,0-.11-.03-.21-.09-.3-.09-.18-.28-.31-.5-.31h-3.06s-.08-.02-.1-.05c0-.01,0-.03,0-.04,0-.06.05-.12.1-.13h3.91s.05,0,.07,0h2.19l-1.9,1.1s-.04.03-.06.04l-3.38,1.95ZM17.52,31.3s-.02.04-.03.07l-1.95,3.38s-.11.06-.17.02c-.07-.04-.09-.12-.05-.19,0,0,0,0,0,0h0l1.52-2.64c.08-.13.09-.28.06-.42h0c-.01-.05-.03-.1-.06-.14-.15-.27-.49-.36-.76-.2l-2.64,1.52h0s0,0-.01,0c-.06.04-.15.02-.19-.05-.03-.06-.02-.12.02-.17l3.38-1.95s.04-.02.07-.03l1.9-1.1-1.1,1.91ZM18.97,11.13c.07-.04.15-.02.19.05,0,0,0,0,0,.01h0s1.48,2.56,1.48,2.56c.08.21.28.35.52.35.13,0,.26-.05.35-.13h0s0,0,0,0c.15-.12.23-.32.2-.5v-2.97h0s0,0,0-.01c0-.08.06-.14.14-.14.07,0,.12.05.13.1v3.91s0,.05,0,.07v2.17l-1.09-1.88s-.03-.04-.04-.06l-1.95-3.38c-.02-.06,0-.12.06-.16M22.01,37.53c-.01.06-.07.11-.13.11-.08,0-.14-.06-.14-.14,0,0,0,0,0-.01h0v-2.97c.02-.17-.04-.35-.17-.47h-.01s0-.01,0-.01c-.1-.09-.23-.14-.37-.14-.24,0-.44.15-.52.35l-1.48,2.57h0s0,0,0,.01c-.04.07-.12.09-.19.05-.06-.03-.08-.1-.06-.16l1.95-3.38s.03-.04.04-.06l1.09-1.88v2.17s0,.05,0,.07v3.91ZM25.91,14.38v-3.91c.01-.06.07-.1.13-.1.08,0,.14.06.14.14,0,0,0,0,0,.01h0v3.04c0,.31.25.56.56.56.11,0,.21-.03.29-.08.08-.05.15-.11.2-.2l1.52-2.64h0s0,0,0-.01c.04-.07.12-.09.19-.05.06.03.08.1.06.16l-1.95,3.38s-.03.04-.04.06l-1.1,1.9v-2.19s0-.05,0-.07M28.97,36.87c-.06.04-.15.02-.19-.05,0,0,0,0,0-.01h0s-1.52-2.63-1.52-2.63c-.05-.08-.11-.15-.19-.2h0s0,0,0,0c-.09-.05-.19-.09-.3-.09-.31,0-.56.25-.56.56v3.04h0s0,0,0,.01c0,.08-.06.14-.14.14-.06,0-.12-.05-.13-.11v-3.91s0-.05,0-.07v-2.19l1.1,1.9s.03.04.04.06l1.95,3.38c.02.06,0,.12-.06.16M30.41,16.7s.02-.04.03-.07l1.95-3.38s.11-.06.17-.02c.07.04.09.12.05.19,0,0,0,0,0,.01h0l-1.46,2.53c-.16.17-.2.44-.08.66.06.1.14.18.24.22.21.11.46.07.63-.08l2.53-1.46h0s0,0,0,0c.07-.04.15-.02.19.05.03.06.02.13-.02.17l-3.38,1.95s-.04.02-.07.03l-1.86,1.08,1.08-1.87ZM34.7,32.66c-.04.07-.12.09-.19.05,0,0,0,0,0,0h0s-2.53-1.46-2.53-1.46c-.17-.15-.42-.19-.63-.08-.1.05-.18.12-.24.23-.13.22-.09.48.08.66l1.46,2.53h0s0,0,0,.01c.04.06.02.15-.05.19-.06.03-.12.02-.17-.02l-1.95-3.38s-.02-.04-.03-.07l-1.08-1.87,1.86,1.07s.04.02.07.03l3.38,1.95s.06.11.02.17M37.51,26.23h0s0,0,0,0h-3.04s-.03,0-.05,0c-.16,0-.3.07-.39.18-.05.04-.09.09-.12.15-.15.27-.06.61.2.76l2.64,1.52h0s0,0,.01,0c.06.04.09.12.05.19-.03.06-.1.08-.16.06l-3.38-1.95s-.04-.03-.06-.04l-1.97-1.14h2.32s.04,0,.05,0h.03s3.9,0,3.9,0c.06.01.11.07.11.13s-.05.12-.11.13M37.52,22.04h-3.89s-.05,0-.07,0h-2.38l1.97-1.14s.04-.03.06-.04l3.38-1.95c.06-.02.12,0,.16.06.04.07.02.15-.05.19,0,0,0,0-.01,0h0s-2.64,1.52-2.64,1.52c-.27.15-.36.49-.2.76.05.1.13.17.22.21.09.07.21.12.34.12h3.04s0,0,.01,0c.08,0,.14.06.14.14,0,.06-.04.11-.1.13"/>
      </g>
    </g>
  </g>
</svg>