<?xml version="1.0" encoding="UTF-8"?>
<svg id="Layer_1" data-name="Layer 1" xmlns="http://www.w3.org/2000/svg" xmlns:xlink="http://www.w3.org/1999/xlink" viewBox="0 0 168 168">
  <defs>
    <style>
      .cls-1 {
        fill: none;
      }

      .cls-1, .cls-2, .cls-3 {
        stroke-width: 0px;
      }

      .cls-4 {
        clip-path: url(#clippath-1);
      }

      .cls-2 {
        fill: #f4a629;
      }

      .cls-2, .cls-3 {
        fill-rule: evenodd;
      }

      .cls-5 {
        clip-path: url(#clippath);
      }

      .cls-3 {
        fill: #fed11a;
      }
    </style>
    <clipPath id="clippath">
      <rect class="cls-1" x="9" y="9.04" width="150" height="149.91"/>
    </clipPath>
    <clipPath id="clippath-1">
      <rect class="cls-1" x="9" y="9.04" width="150" height="149.91"/>
    </clipPath>
  </defs>
  <g id="picto-umpratodos">
    <g class="cls-5">
      <g class="cls-4">
        <path class="cls-2" d="M44.46,26.5c1.49,2.58,4.78,3.49,7.38,2.05h0s.03-.01.05-.02c.02-.01.03-.02.05-.03h0c2.54-1.54,3.4-4.83,1.91-7.42-1.49-2.58-4.78-3.49-7.38-2.05h0s-.03.02-.05.03c-.02,0-.03.02-.04.03h0c-2.55,1.54-3.41,4.84-1.91,7.42M83.8,9.05s-.04,0-.05,0h0c-2.97.06-5.37,2.49-5.37,5.48s2.39,5.41,5.37,5.47h0s.03,0,.05,0c.02,0,.03,0,.05,0h0c2.97-.06,5.36-2.49,5.36-5.47s-2.39-5.41-5.36-5.47h0s-.03,0-.05,0M121.24,19.05s-.03-.02-.04-.03h0c-2.6-1.43-5.89-.53-7.38,2.06-1.49,2.59-.63,5.88,1.91,7.42h0s.03.02.05.03c.01,0,.03.02.04.03h0c2.61,1.43,5.89.53,7.38-2.06,1.49-2.58.63-5.88-1.91-7.42h0s-.03-.02-.05-.03M148.57,46.41s-.01-.03-.03-.05h0c-1.53-2.55-4.83-3.4-7.42-1.91-2.59,1.49-3.5,4.78-2.06,7.38h0s.02.03.03.05c.01.02.01.03.02.05h0c1.54,2.55,4.84,3.4,7.42,1.91,2.59-1.5,3.49-4.78,2.06-7.38h0s-.02-.03-.03-.05M153.14,78.59c.12,0,.26-.01.39-.01,2.98,0,5.41,2.39,5.47,5.37h0v.11h0c-.06,2.82-2.25,5.12-5.02,5.35h-.03s-.02,0-.02,0c-.17.01-.34.02-.5.02-2.99,0-5.41-2.39-5.47-5.37h0s0-.04,0-.05,0-.04,0-.05h0c.05-2.86,2.31-5.19,5.15-5.36h.01s.03,0,.03,0ZM148.67,121.59s-.01.03-.02.05h0c-1.54,2.55-4.84,3.4-7.42,1.91-2.59-1.49-3.49-4.78-2.06-7.38h0s.02-.03.03-.05c.01-.02.02-.03.02-.05h0c1.54-2.55,4.84-3.4,7.42-1.91,2.59,1.49,3.49,4.78,2.06,7.38h0s-.02.03-.03.04M121.34,148.95s-.03.02-.05.03h0c-2.6,1.43-5.89.52-7.38-2.06-1.5-2.59-.63-5.89,1.91-7.42h0s.03-.02.05-.03c.02,0,.03-.02.05-.03h0c2.61-1.44,5.89-.53,7.38,2.06,1.49,2.59.63,5.88-1.91,7.42h0s-.03.02-.05.03M83.91,158.95s-.04,0-.06,0h0c-2.97-.06-5.37-2.49-5.37-5.48s2.39-5.41,5.37-5.47h0s.06,0,.06,0h.05c2.97.06,5.37,2.49,5.37,5.47s-2.39,5.41-5.37,5.47h0s-.04,0-.05,0M44.56,141.5c1.49-2.58,4.78-3.49,7.38-2.05.02,0,.03.02.05.03.02,0,.03.02.05.03h0c2.54,1.54,3.4,4.84,1.91,7.42-1.49,2.59-4.78,3.49-7.38,2.06h0s-.03-.02-.04-.03c-.02,0-.03-.02-.05-.03h0c-2.54-1.54-3.41-4.84-1.91-7.43M21.16,114.1c2.58-1.49,5.88-.63,7.42,1.91h0s.02.03.02.05c.01.01.02.03.03.04h0c1.44,2.6.53,5.89-2.05,7.38-2.59,1.5-5.89.63-7.42-1.91h0s-.03-.05-.03-.05c-.01-.01-.02-.03-.03-.04h0c-1.44-2.61-.53-5.89,2.06-7.39M19.29,81.37c.46.79.74,1.7.75,2.67h0v.11h0c-.06,2.97-2.48,5.37-5.47,5.37-2.08,0-3.88-1.16-4.81-2.86-.47-.79-.75-1.71-.77-2.69v-.11c.06-2.97,2.49-5.36,5.47-5.36,2.09,0,3.9,1.17,4.82,2.88M21.05,53.9c2.59,1.49,5.88.63,7.42-1.91h0s.02-.03.03-.04c0-.02.02-.03.03-.05h0c1.44-2.6.53-5.89-2.05-7.38-2.59-1.49-5.89-.63-7.42,1.91h0s-.02.03-.03.05c0,.02-.01.03-.03.04h0c-1.44,2.61-.53,5.89,2.05,7.39"/>
        <path class="cls-3" d="M144.89,71.86s0,0,0,0c-.34-.25-.77-.4-1.23-.4h-13.39l11.29-6.52c.4-.23.69-.57.86-.96t0,0s0,0,0,0c.73-1.16.79-2.72.03-4.04l-4.3-7.45-.05-.1-4.31-7.45c-.76-1.32-2.14-2.05-3.51-1.99,0,0,0,0,0,0,0,0,0,0,0,0-.42-.04-.86.04-1.26.27l-10.87,6.27,6.28-10.88c.23-.4.31-.84.27-1.26,0,0,0,0,0,0,0,0,0,0,0,0,.06-1.37-.67-2.75-1.99-3.51l-7.45-4.3-.1-.05-7.45-4.3c-1.32-.76-2.88-.7-4.03.03h0s0,0,0,0c-.39.17-.73.46-.96.86l-6.36,11.02v-12.7c0-.46-.14-.88-.4-1.22h0s0,0,0,0c-.64-1.21-1.95-2.05-3.48-2.05h-17.32c-1.53,0-2.85.83-3.48,2.05,0,0,0,0,0,0,0,0,0,0,0,0-.25.34-.4.77-.4,1.22v12.61l-6.31-10.94c-.23-.39-.57-.68-.96-.86h0s0,0,0,0c-1.15-.73-2.71-.79-4.03-.03l-7.46,4.31-.09.05-7.45,4.3c-1.32.76-2.05,2.14-1.99,3.51,0,0,0,0,0,0h0c-.04.43.04.87.27,1.27l6.36,11.03-11.01-6.36c-.4-.23-.83-.31-1.26-.27,0,0,0,0,0,0,0,0,0,0,0,0-1.36-.06-2.74.67-3.51,1.99l-4.3,7.45-.05.09-4.3,7.46c-.76,1.32-.7,2.88.03,4.03,0,0,0,0,0,0,0,0,0,0,0,0,.17.39.46.73.86.96l11.01,6.35h-12.71c-.46,0-.88.15-1.22.4,0,0,0,0,0,0-1.21.64-2.04,1.95-2.04,3.48v17.33c0,.76.21,1.47.56,2.07.36.69.91,1.25,1.58,1.6h0s0,0,0,0c.34.25.77.4,1.22.4h12.71l-11.01,6.36c-.4.23-.69.57-.86.96,0,0,0,0,0,0,0,0,0,0,0,0-.73,1.15-.79,2.71-.03,4.03l4.3,7.46.06.09,4.31,7.45c.76,1.32,2.14,2.05,3.51,1.99h0c.42.04.87-.04,1.26-.27l11.01-6.36-6.37,11.03c-.23.4-.31.84-.27,1.26,0,0,0,0,0,0-.06,1.37.67,2.75,1.99,3.51l7.45,4.31.09.05,7.46,4.3c1.32.76,2.88.7,4.03-.03,0,0,0,0,0,0h0c.39-.18.73-.47.95-.87l6.31-10.93v12.61c0,.45.15.88.4,1.22,0,0,0,0,0,0h0c.63,1.22,1.95,2.05,3.48,2.05h17.32c1.53,0,2.84-.83,3.48-2.05,0,0,0,0,0,0,0,0,0,0,0,0,.25-.34.4-.77.4-1.22v-12.7l6.36,11.02c.23.4.57.69.96.86t0,0c1.16.73,2.71.79,4.04.03l7.46-4.3.09-.06,7.45-4.3c1.32-.76,2.05-2.14,1.99-3.51,0,0,0,0,0,0h0c.04-.43-.04-.87-.27-1.27l-6.29-10.88,10.87,6.28c.39.23.83.31,1.26.27,0,0,0,0,0,0,0,0,0,0,0,0,1.37.06,2.75-.67,3.51-1.99l4.31-7.45.05-.09,4.3-7.45c.76-1.32.7-2.88-.03-4.03,0,0,0,0,0,0t0,0c-.18-.39-.46-.73-.86-.96l-11.28-6.51h13.18c.08,0,.16,0,.24-.01.41-.03.78-.17,1.09-.4h0c1.21-.64,2.04-1.95,2.04-3.48v-17.32c0-1.53-.83-2.84-2.04-3.48M43.57,51.58c.14-.25.46-.33.7-.19.02,0,.03.01.04.03h0s9.89,5.7,9.89,5.7c1,.58,2.28.24,2.85-.76.1-.17.17-.35.22-.54h0c.14-.52.08-1.09-.21-1.59l-5.71-9.89h0s-.02-.03-.03-.04c-.14-.25-.06-.56.19-.7.21-.12.47-.08.62.09l7.33,12.69c.04.08.08.17.13.25l4.13,7.15-7.13-4.12c-.08-.05-.16-.09-.24-.13l-12.69-7.33c-.17-.16-.21-.42-.09-.63M33.44,75.73s.03,0,.05,0h0s11.42,0,11.42,0c1.15,0,2.09-.94,2.09-2.09,0-.37-.1-.72-.27-1.02-.17-.41-.47-.77-.88-1l-9.89-5.71h0s-.03-.02-.04-.02c-.25-.14-.33-.46-.19-.7.12-.21.37-.3.59-.24l12.69,7.33c.08.05.15.1.23.15l7.13,4.12h-8.22c-.09,0-.19,0-.28.01h-14.66c-.1-.02-.19-.08-.27-.16-.01-.05-.02-.1-.02-.15,0-.29.23-.51.51-.51M36.42,103.06c-.22.07-.47-.02-.59-.24-.14-.24-.06-.56.19-.7.02,0,.03-.01.04-.02h0s9.89-5.71,9.89-5.71c.62-.36.99-.99,1.04-1.66v-.02h0c0-.06,0-.11,0-.16,0-.41-.12-.79-.33-1.12-.34-.69-1.05-1.16-1.87-1.16h-11.46c-.15,0-.29-.07-.38-.17-.01-.05-.02-.1-.02-.15,0-.24.17-.45.39-.5h14.66c.09,0,.18.01.28.01h8.22l-7.13,4.12c-.08.05-.16.1-.23.15l-12.69,7.33ZM59.71,111.37c-.05.08-.09.16-.13.25l-7.33,12.69c-.16.17-.42.21-.63.09-.25-.14-.33-.46-.19-.7,0,0,.02-.02.03-.03h0l5.71-9.89c.29-.5.34-1.07.21-1.58h0c-.05-.19-.12-.37-.22-.54-.58-1-1.85-1.34-2.85-.76l-9.89,5.71h0s-.02.01-.04.02c-.24.14-.56.06-.7-.19-.12-.21-.08-.47.09-.63l12.69-7.33c.08-.04.17-.08.24-.13l7.13-4.12-4.12,7.14ZM65.12,35.75c.25-.14.56-.06.7.19,0,.01.01.03.02.04h0s5.55,9.62,5.55,9.62c.31.78,1.06,1.33,1.95,1.33.5,0,.96-.18,1.32-.47h0s0,0,0,0c.57-.46.85-1.18.76-1.89v-11.14h0s0-.03,0-.04c0-.28.23-.51.51-.51.24,0,.45.17.5.39v14.66c0,.09-.01.18-.01.27v8.13l-4.07-7.05c-.05-.08-.1-.16-.15-.23l-7.33-12.69c-.07-.22.02-.47.24-.59M76.56,134.74c-.05.23-.25.4-.5.4-.28,0-.51-.23-.51-.51,0-.01,0-.03,0-.04h0v-11.15c.08-.65-.16-1.32-.65-1.78l-.04-.04h0c-.37-.34-.86-.54-1.4-.54-.89,0-1.64.55-1.95,1.32l-5.55,9.62h0s0,.03-.02.04c-.14.25-.45.33-.7.19-.21-.12-.3-.37-.24-.59l7.33-12.69c.05-.08.1-.16.15-.24l4.07-7.05v8.13c0,.09,0,.18.01.28v14.65ZM91.15,47.91v-14.66c.05-.22.25-.39.5-.39.28,0,.51.23.51.51,0,.01,0,.03,0,.04h0v11.42c0,1.15.93,2.09,2.09,2.09.4,0,.78-.12,1.1-.31.3-.18.55-.43.74-.75l5.71-9.88h0s.01-.03.02-.04c.14-.25.45-.33.7-.19.21.12.3.37.24.59l-7.33,12.69c-.05.07-.1.15-.15.23l-4.12,7.13v-8.21c0-.09,0-.18-.01-.27M102.63,132.25c-.24.14-.56.06-.7-.19,0,0,0-.03-.01-.04h0s-5.71-9.88-5.71-9.88c-.18-.32-.43-.56-.72-.74h0s0,0,0,0c-.32-.21-.71-.32-1.12-.32-1.15,0-2.09.93-2.09,2.09v11.42h0s0,.03,0,.04c0,.29-.23.52-.51.52-.24,0-.45-.17-.5-.4v-14.65c0-.09.01-.18.01-.28v-8.21l4.12,7.13c.05.08.1.16.15.23l7.33,12.69c.07.22-.02.47-.24.59M108.05,56.63c.04-.08.09-.16.12-.25l7.33-12.69c.16-.17.42-.21.63-.09.24.14.33.46.19.7,0,.01-.02.03-.03.04h0l-5.47,9.48c-.61.65-.76,1.65-.28,2.47.22.38.53.66.9.84.79.41,1.73.27,2.36-.31l9.48-5.47h0s.03-.02.03-.02c.25-.14.56-.06.71.19.12.21.08.47-.09.63l-12.69,7.33c-.09.03-.17.08-.25.12l-6.98,4.03,4.04-7ZM124.12,116.49c-.14.25-.46.33-.7.19-.01,0-.03-.02-.04-.03h0s-9.48-5.47-9.48-5.47c-.63-.57-1.56-.72-2.35-.31-.37.18-.69.46-.91.84-.47.82-.33,1.82.29,2.47l5.47,9.48h0s.02.03.03.04c.15.24.06.55-.19.7-.21.12-.47.08-.63-.09l-7.33-12.69c-.03-.08-.07-.16-.12-.25l-4.04-6.99,6.98,4.03c.08.04.16.09.25.12l12.69,7.33c.17.16.21.42.09.63M134.65,92.36h-.02s0,0,0,0h-11.41c-.06,0-.11,0-.17,0-.59.02-1.11.28-1.48.68-.18.15-.34.34-.46.55-.58,1-.24,2.27.76,2.85l9.89,5.7h0s.03.02.04.03c.24.14.33.45.18.7-.13.21-.37.31-.59.24l-12.69-7.33c-.07-.05-.15-.1-.23-.15l-7.4-4.27h8.69c.07,0,.13,0,.2,0h.1s14.63,0,14.63,0c.23.05.4.26.4.5s-.18.46-.43.5M134.71,76.64h-14.58c-.09,0-.18-.01-.28-.01h-8.91l7.4-4.27c.08-.05.16-.1.23-.15l12.69-7.33c.22-.07.47.02.59.24.14.24.06.56-.19.7-.01,0-.03.01-.04.02h0s-9.89,5.71-9.89,5.71c-1,.58-1.34,1.85-.77,2.85.2.36.5.63.84.81.35.27.79.43,1.27.43h11.41s.03,0,.05,0c.29,0,.51.23.51.51,0,.23-.15.43-.36.49"/>
      </g>
    </g>
  </g>
</svg>