<?xml version="1.0" encoding="UTF-8"?>
<svg id="Layer_1" data-name="Layer 1" xmlns="http://www.w3.org/2000/svg" xmlns:xlink="http://www.w3.org/1999/xlink" viewBox="0 0 256 256">
  <defs>
    <style>
      .cls-1 {
        fill: none;
      }

      .cls-1, .cls-2, .cls-3 {
        stroke-width: 0px;
      }

      .cls-4 {
        clip-path: url(#clippath-1);
      }

      .cls-2 {
        fill: #f4a629;
      }

      .cls-2, .cls-3 {
        fill-rule: evenodd;
      }

      .cls-5 {
        clip-path: url(#clippath);
      }

      .cls-3 {
        fill: #fed11a;
      }
    </style>
    <clipPath id="clippath">
      <rect class="cls-1" x="8" y="8.07" width="240" height="239.86"/>
    </clipPath>
    <clipPath id="clippath-1">
      <rect class="cls-1" x="8" y="8.07" width="240" height="239.86"/>
    </clipPath>
  </defs>
  <g id="picto-umpratodos">
    <g class="cls-5">
      <g class="cls-4">
        <path class="cls-2" d="M64.73,36c2.39,4.13,7.65,5.59,11.81,3.29h0s.05-.02.08-.04c.03-.02.05-.03.08-.04h0c4.07-2.46,5.44-7.74,3.05-11.88-2.39-4.13-7.65-5.58-11.82-3.28h0s-.05.03-.08.04c-.03.01-.05.02-.07.04h0c-4.07,2.46-5.45,7.74-3.06,11.88M127.69,8.07s-.06,0-.09,0h0c-4.76.1-8.59,3.98-8.59,8.76s3.83,8.66,8.59,8.75h0s.05,0,.09,0c.03,0,.05,0,.08,0h0c4.76-.1,8.58-3.98,8.58-8.76s-3.83-8.66-8.58-8.76h0s-.06,0-.08,0M187.58,24.08s-.05-.03-.07-.05h0c-4.16-2.29-9.42-.84-11.81,3.3-2.39,4.14-1.01,9.42,3.06,11.87h0s.05.03.08.04c.02.01.04.04.07.05h0c4.17,2.29,9.42.84,11.82-3.3,2.39-4.13,1.01-9.41-3.06-11.87h0s-.05-.03-.08-.05M231.31,67.85s-.02-.05-.04-.07h0c-2.45-4.08-7.74-5.45-11.87-3.05-4.14,2.39-5.59,7.64-3.3,11.81h0s.03.05.05.08c.02.02.02.05.03.07h0c2.46,4.07,7.74,5.44,11.88,3.06,4.14-2.39,5.58-7.65,3.29-11.82h0s-.03-.05-.05-.08M238.62,119.35c.2-.01.41-.02.62-.02,4.78,0,8.66,3.83,8.75,8.58h0v.17h0c-.09,4.52-3.6,8.2-8.04,8.56h-.05s-.03,0-.03,0c-.26.02-.54.04-.81.04-4.78,0-8.66-3.83-8.75-8.59h0s0-.06,0-.09,0-.06,0-.08h0c.09-4.58,3.7-8.31,8.24-8.57h.02s.05,0,.05,0ZM231.48,188.15s-.02.05-.04.08h0c-2.46,4.08-7.74,5.45-11.87,3.06-4.14-2.39-5.59-7.64-3.29-11.81h0s.03-.06.04-.08c.02-.03.02-.05.04-.08h0c2.46-4.07,7.74-5.45,11.87-3.06,4.15,2.39,5.59,7.65,3.3,11.81h0s-.03.05-.05.07M187.75,231.93s-.05.03-.07.05h0c-4.17,2.29-9.42.84-11.81-3.3-2.4-4.14-1.01-9.42,3.05-11.87h0s.05-.02.07-.04c.02-.02.05-.04.08-.05h0c4.17-2.3,9.42-.85,11.81,3.29,2.39,4.14,1.01,9.41-3.06,11.87h0s-.04.03-.08.05M127.86,247.93s-.06,0-.09,0h0c-4.76-.1-8.58-3.98-8.58-8.76s3.83-8.66,8.58-8.75h0s.09,0,.09,0h.08c4.76.09,8.58,3.98,8.58,8.75s-3.83,8.66-8.58,8.76h0s-.06,0-.08,0M64.9,220c2.39-4.13,7.64-5.58,11.81-3.29.03.01.05.03.08.04.03.01.05.03.08.04h0c4.07,2.47,5.45,7.74,3.05,11.87-2.39,4.14-7.65,5.59-11.81,3.29h0s-.05-.03-.07-.04c-.03,0-.05-.03-.08-.04h0c-4.07-2.46-5.45-7.74-3.06-11.88M27.45,176.16c4.14-2.39,9.42-1.01,11.87,3.06h0s.03.05.04.08c.02.02.03.05.04.07h0c2.3,4.17.85,9.42-3.28,11.81-4.14,2.39-9.42,1.02-11.88-3.05h0s-.04-.08-.04-.08c-.02-.02-.03-.04-.04-.07h0c-2.3-4.18-.85-9.43,3.29-11.82M24.47,123.8c.74,1.26,1.18,2.72,1.2,4.27h0v.17h0c-.09,4.75-3.97,8.58-8.75,8.58-3.32,0-6.21-1.85-7.69-4.58-.76-1.27-1.2-2.74-1.23-4.31v-.17c.09-4.76,3.98-8.58,8.75-8.58,3.34,0,6.24,1.87,7.72,4.61M27.28,79.84c4.14,2.39,9.42,1.01,11.87-3.06h0s.03-.04.04-.07c.01-.03.03-.05.04-.07h0c2.3-4.16.85-9.42-3.28-11.81-4.14-2.39-9.42-1.01-11.88,3.06h0s-.03.05-.05.08c-.01.02-.02.05-.04.07h0c-2.3,4.17-.85,9.43,3.29,11.82"/>
        <path class="cls-3" d="M225.43,108.57s0,0-.01,0c-.55-.4-1.22-.63-1.96-.63h-21.42l18.06-10.43c.64-.37,1.1-.91,1.38-1.53t0,0s0,0,0,0c1.17-1.85,1.27-4.35.05-6.46l-6.89-11.93-.09-.15-6.89-11.93c-1.22-2.11-3.43-3.28-5.61-3.19,0,0,0,0,0,0,0,0-.01,0-.01,0-.67-.07-1.38.06-2.02.43l-17.39,10.04,10.05-17.41c.37-.64.5-1.34.43-2.02,0,0,0,0,0-.01,0,0,0,0,0,0,.09-2.19-1.07-4.4-3.19-5.61l-11.92-6.88-.15-.09-11.93-6.89c-2.11-1.22-4.61-1.12-6.46.05h0s-.01,0-.01,0c-.62.28-1.16.74-1.53,1.38l-10.18,17.63v-20.31c0-.73-.23-1.41-.63-1.96h0s0-.01,0-.01c-1.02-1.94-3.13-3.27-5.56-3.27h-27.72c-2.44,0-4.55,1.33-5.57,3.27,0,0,0,0,0,0,0,0,0,0,0,.01-.39.55-.64,1.23-.64,1.96v20.18l-10.1-17.5c-.37-.63-.91-1.1-1.53-1.38h0s0,0,0,0c-1.85-1.17-4.34-1.27-6.45-.05l-11.93,6.89-.15.09-11.92,6.88c-2.11,1.22-3.28,3.42-3.19,5.61,0,0,0,0,0,0h0c-.07.69.06,1.39.43,2.03l10.18,17.65-17.62-10.17c-.63-.37-1.34-.5-2.01-.43,0,0,0,0,0,0,0,0-.01,0-.01,0-2.18-.09-4.39,1.07-5.61,3.19l-6.88,11.93-.09.15-6.89,11.93c-1.22,2.11-1.13,4.6.05,6.45,0,0,0,0,0,0,0,0,0,0,0,0,.28.62.74,1.16,1.38,1.53l17.62,10.17h-20.34c-.73,0-1.4.25-1.96.64,0,0-.01,0-.01,0-1.94,1.02-3.27,3.13-3.27,5.57v27.72c0,1.21.33,2.35.9,3.31.58,1.1,1.46,2,2.53,2.56h0s0,.01.01.01c.55.39,1.23.63,1.96.63h20.34l-17.62,10.17c-.64.37-1.11.91-1.38,1.53,0,0,0,0,0,0,0,0,0,0,0,0-1.17,1.85-1.27,4.33-.05,6.45l6.88,11.93.09.15,6.89,11.92c1.22,2.11,3.42,3.28,5.61,3.19h.01c.68.07,1.39-.06,2.02-.43l17.62-10.18-10.19,17.65c-.37.64-.5,1.34-.43,2.02,0,0,0,0,0,.01-.09,2.19,1.07,4.4,3.19,5.62l11.93,6.89.15.08,11.93,6.89c2.11,1.22,4.6,1.12,6.46-.05,0,0,0,0,0,0h0c.62-.29,1.16-.75,1.53-1.39l10.1-17.49v20.18c0,.73.24,1.4.64,1.95,0,0,0,.01,0,.01h0c1.01,1.95,3.13,3.28,5.57,3.28h27.72c2.44,0,4.55-1.33,5.57-3.27,0,0,0,0,0,0,0,0,0-.01,0-.01.4-.55.63-1.23.63-1.95v-20.32l10.18,17.63c.37.63.91,1.1,1.53,1.38t0,0c1.85,1.17,4.34,1.27,6.46.05l11.93-6.88.15-.09,11.92-6.88c2.12-1.22,3.28-3.43,3.19-5.62,0,0,0,0,0,0h0c.07-.69-.07-1.39-.43-2.03l-10.06-17.42,17.39,10.04c.63.37,1.33.5,2.01.43,0,0,0,0,.01,0,0,0,0,0,0,0,2.19.09,4.4-1.07,5.61-3.18l6.89-11.93.08-.15,6.89-11.93c1.22-2.12,1.12-4.61-.05-6.45,0,0,0,0,0,0t0,0c-.28-.62-.74-1.17-1.38-1.53l-18.05-10.42h21.08c.13,0,.25,0,.38-.02.65-.04,1.25-.27,1.74-.63h.01c1.94-1.02,3.27-3.13,3.27-5.57v-27.72c0-2.44-1.33-4.55-3.27-5.56M63.32,76.13c.23-.4.73-.53,1.12-.3.02.01.04.02.06.04h0s15.82,9.12,15.82,9.12c1.6.93,3.64.38,4.57-1.22.16-.28.27-.56.35-.86h0c.22-.84.13-1.75-.33-2.55l-9.13-15.82h0s-.04-.04-.05-.06c-.23-.39-.09-.89.3-1.12.34-.2.75-.13,1,.15l11.73,20.3c.06.13.13.27.21.39l6.6,11.44-11.41-6.59c-.13-.08-.26-.14-.39-.2l-20.31-11.72c-.27-.25-.34-.67-.15-1M47.1,114.77s.05,0,.08,0h0s18.27,0,18.27,0c1.84,0,3.34-1.5,3.34-3.35,0-.59-.15-1.15-.43-1.64-.27-.65-.75-1.22-1.41-1.6l-15.82-9.13h0s-.04-.02-.07-.04c-.4-.23-.53-.73-.3-1.12.2-.34.59-.49.94-.38l20.31,11.73c.12.08.24.16.37.24l11.41,6.59h-13.16c-.15,0-.3,0-.45.02h-23.45c-.17-.04-.31-.13-.42-.26-.02-.07-.03-.15-.03-.24,0-.46.37-.82.82-.82M51.87,158.49c-.35.11-.75-.04-.94-.38-.23-.39-.09-.89.3-1.12.02-.01.04-.02.07-.03h0s15.82-9.14,15.82-9.14c1-.57,1.58-1.58,1.66-2.65v-.03h0c0-.09,0-.17,0-.26,0-.66-.19-1.27-.52-1.79-.55-1.1-1.68-1.86-2.99-1.86h-18.34c-.24,0-.46-.1-.61-.27-.02-.08-.04-.16-.04-.25,0-.39.27-.72.63-.8h23.45c.15.01.29.02.45.02h13.16l-11.41,6.59c-.13.08-.25.16-.37.24l-20.3,11.72ZM89.14,171.79c-.08.13-.15.26-.2.39l-11.73,20.31c-.25.27-.67.34-1,.15-.4-.23-.53-.73-.3-1.12,0-.02.03-.04.04-.05h0l9.14-15.82c.46-.8.55-1.71.33-2.54h0c-.08-.31-.19-.59-.35-.87-.92-1.6-2.97-2.14-4.56-1.22l-15.82,9.14h0s-.04.02-.06.03c-.39.23-.89.09-1.12-.3-.2-.34-.12-.75.14-1l20.31-11.72c.13-.06.27-.12.39-.2l11.41-6.59-6.6,11.43ZM97.8,50.81c.4-.23.89-.09,1.12.3.01.02.02.04.03.07h0s8.88,15.39,8.88,15.39c.49,1.24,1.7,2.12,3.12,2.12.8,0,1.54-.28,2.11-.75h0s.01-.01.01-.01c.92-.74,1.36-1.89,1.22-3.03v-17.82h0s0-.05,0-.07c0-.45.37-.82.82-.82.39,0,.72.27.8.63v23.45c-.01.14-.02.29-.02.44v13.01l-6.51-11.28c-.08-.13-.16-.25-.24-.37l-11.72-20.3c-.11-.35.04-.74.38-.94M116.09,209.19c-.08.36-.4.63-.8.63-.45,0-.82-.37-.82-.82,0-.02,0-.04,0-.07h0v-17.84c.13-1.05-.25-2.11-1.04-2.84l-.06-.06h0c-.59-.54-1.38-.86-2.23-.86-1.42,0-2.63.88-3.12,2.12l-8.88,15.39h0s-.02.04-.03.06c-.23.39-.73.53-1.12.3-.34-.2-.48-.59-.38-.95l11.72-20.3c.08-.13.16-.25.24-.38l6.51-11.28v13.01c0,.15,0,.29.02.44v23.44ZM139.45,70.26v-23.45c.08-.36.41-.63.8-.63.45,0,.82.37.82.82,0,.02,0,.04,0,.07h0v18.27c0,1.85,1.49,3.34,3.34,3.34.64,0,1.25-.19,1.76-.5.47-.28.89-.69,1.18-1.2l9.14-15.81h0s.02-.04.03-.06c.22-.39.73-.53,1.12-.3.34.2.49.59.38.94l-11.72,20.31c-.09.12-.16.24-.24.37l-6.59,11.42v-13.14c0-.15,0-.29-.02-.44M157.81,205.2c-.39.23-.89.09-1.12-.3,0-.02-.02-.04-.02-.07h-.01s-9.13-15.8-9.13-15.8c-.29-.5-.68-.9-1.14-1.18h0s0,0,0,0c-.51-.33-1.13-.51-1.79-.51-1.85,0-3.34,1.49-3.34,3.34v18.26h0s0,.05,0,.07c0,.46-.37.83-.82.83-.39,0-.72-.27-.8-.64v-23.44c.02-.15.02-.29.02-.44v-13.13l6.59,11.41c.08.13.16.25.24.37l11.72,20.31c.11.35-.04.75-.38.95M166.48,84.21c.07-.13.14-.26.2-.39l11.73-20.31c.25-.27.67-.34,1.01-.14.39.23.53.73.3,1.12-.01.02-.03.04-.05.07h0l-8.76,15.16c-.98,1.04-1.21,2.64-.45,3.95.35.6.85,1.06,1.44,1.34,1.26.65,2.77.42,3.78-.49l15.17-8.75h0s.04-.03.05-.04c.4-.23.9-.09,1.13.3.19.34.12.75-.15,1l-20.3,11.73c-.14.06-.26.12-.39.2l-11.17,6.45,6.46-11.2ZM192.2,179.98c-.23.4-.73.53-1.12.3-.02,0-.04-.03-.06-.04h0s-15.16-8.75-15.16-8.75c-1.01-.91-2.5-1.15-3.76-.5-.59.28-1.11.74-1.46,1.35-.76,1.31-.53,2.91.46,3.95l8.76,15.16h0s.04.05.04.07c.23.39.09.89-.3,1.12-.34.19-.75.13-1.01-.15l-11.73-20.31c-.06-.13-.12-.26-.2-.4l-6.46-11.19,11.17,6.45c.13.07.26.15.39.2l20.31,11.73c.27.25.34.67.15,1.01M209.03,141.38h-.04s0,0,0,0h-18.26c-.09,0-.18,0-.27.01-.94.03-1.77.44-2.37,1.09-.29.24-.54.54-.74.88-.92,1.6-.38,3.64,1.22,4.57l15.82,9.13h0s.05.03.07.04c.39.23.52.72.29,1.12-.2.34-.59.49-.94.38l-20.31-11.73c-.12-.08-.25-.17-.37-.24l-11.84-6.84h13.91c.11,0,.21,0,.33-.01h.16s23.4,0,23.4,0c.37.08.63.41.63.8s-.29.74-.69.8M209.14,116.23h-23.33c-.14-.01-.29-.02-.44-.02h-14.25l11.85-6.84c.13-.08.26-.16.37-.24l20.31-11.73c.35-.11.74.04.94.38.23.39.09.89-.3,1.12-.02.01-.04.02-.07.03h0s-15.82,9.14-15.82,9.14c-1.6.92-2.15,2.96-1.22,4.56.33.57.79,1.01,1.34,1.29.56.44,1.27.69,2.04.69h18.26s.05,0,.07,0c.46,0,.82.37.82.82,0,.37-.24.68-.58.78"/>
      </g>
    </g>
  </g>
</svg>