<?xml version="1.0" encoding="UTF-8"?>
<svg id="Layer_1" data-name="Layer 1" xmlns="http://www.w3.org/2000/svg" xmlns:xlink="http://www.w3.org/1999/xlink" viewBox="0 0 512 512">
  <defs>
    <style>
      .cls-1 {
        fill: none;
      }

      .cls-1, .cls-2, .cls-3 {
        stroke-width: 0px;
      }

      .cls-4 {
        clip-path: url(#clippath-1);
      }

      .cls-2 {
        fill: #f4a629;
      }

      .cls-2, .cls-3 {
        fill-rule: evenodd;
      }

      .cls-5 {
        clip-path: url(#clippath);
      }

      .cls-3 {
        fill: #fed11a;
      }
    </style>
    <clipPath id="clippath">
      <rect class="cls-1" x="46" y="46.12" width="420" height="419.76"/>
    </clipPath>
    <clipPath id="clippath-1">
      <rect class="cls-1" x="46" y="46.12" width="420" height="419.76"/>
    </clipPath>
  </defs>
  <g id="picto-umpratodos">
    <g class="cls-5">
      <g class="cls-4">
        <path class="cls-2" d="M145.28,95.01c4.18,7.23,13.38,9.77,20.67,5.75h0s.08-.04.13-.07c.05-.03.09-.05.13-.08h0c7.12-4.31,9.53-13.54,5.35-20.79-4.18-7.23-13.38-9.77-20.68-5.75h0s-.08.05-.13.07c-.05.02-.08.04-.12.07h0c-7.13,4.31-9.53,13.55-5.35,20.79M255.45,46.13c-.06,0-.1-.01-.15-.01h0c-8.33.17-15.03,6.97-15.03,15.33s6.7,15.15,15.03,15.31h0c.05,0,.1,0,.15,0,.05,0,.09,0,.15,0h0c8.32-.17,15.02-6.97,15.02-15.32s-6.7-15.16-15.02-15.32h0c-.05-.01-.1,0-.15,0M360.26,74.13s-.08-.06-.12-.08h0c-7.29-4.01-16.49-1.48-20.67,5.77-4.18,7.24-1.77,16.48,5.35,20.78h0s.08.05.13.07c.04.02.08.06.11.08h.01c7.3,4.01,16.49,1.48,20.68-5.77,4.18-7.24,1.77-16.47-5.35-20.77h0s-.08-.06-.13-.08M436.79,150.74c-.02-.05-.04-.08-.07-.13h-.01c-4.29-7.13-13.54-9.53-20.77-5.35-7.25,4.18-9.79,13.37-5.77,20.67h0s.06.09.08.13c.03.04.04.09.06.13h0c4.31,7.13,13.55,9.53,20.79,5.35,7.24-4.19,9.77-13.39,5.76-20.68h0s-.06-.08-.08-.13M449.59,240.86c.35-.03.72-.04,1.08-.04,8.36,0,15.15,6.7,15.31,15.02h.01v.3h-.01c-.15,7.9-6.3,14.35-14.07,14.97h-.08s-.05.01-.05.01c-.46.04-.94.06-1.41.06-8.36,0-15.15-6.7-15.31-15.02h-.01c0-.05.01-.1.01-.15s0-.1-.01-.15h.01c.15-8.02,6.47-14.54,14.42-15h.03s.08-.01.08-.01ZM437.09,361.26s-.04.09-.06.13h-.01c-4.3,7.13-13.54,9.53-20.77,5.35-7.24-4.18-9.79-13.38-5.76-20.66h0s.06-.1.08-.13c.03-.05.04-.1.06-.13h.01c4.3-7.13,13.54-9.53,20.77-5.35,7.26,4.18,9.78,13.39,5.77,20.67h0s-.05.08-.08.12M360.56,437.87s-.08.05-.13.08h0c-7.29,4-16.49,1.46-20.67-5.78-4.2-7.24-1.77-16.48,5.35-20.78h0s.08-.04.13-.07c.04-.03.08-.06.13-.08h0c7.29-4.02,16.49-1.48,20.67,5.77,4.18,7.24,1.77,16.47-5.35,20.78h0s-.07.05-.13.08M255.75,465.87c-.06,0-.1,0-.15,0h0c-8.33-.17-15.02-6.97-15.02-15.33s6.7-15.16,15.02-15.31h0s.15,0,.15,0h.15c8.32.16,15.02,6.97,15.02,15.32s-6.7,15.16-15.02,15.33h0s-.1,0-.15,0M145.58,416.99c4.18-7.23,13.38-9.77,20.67-5.75.06.02.09.05.13.08.05.03.09.05.13.07h0c7.12,4.32,9.53,13.54,5.35,20.78-4.18,7.24-13.38,9.78-20.66,5.76h-.01s-.08-.05-.12-.07c-.06-.01-.1-.04-.13-.07h0c-7.12-4.3-9.53-13.55-5.35-20.79M80.04,340.28c7.24-4.18,16.48-1.77,20.77,5.35h.01s.05.08.07.13c.03.04.06.08.08.13h0c4.03,7.29,1.49,16.49-5.74,20.67-7.25,4.19-16.48,1.78-20.79-5.35h0s-.07-.14-.07-.14c-.03-.04-.05-.08-.07-.11h0c-4.03-7.31-1.48-16.5,5.76-20.68M74.82,248.64c1.3,2.2,2.06,4.75,2.11,7.47h0v.3h0c-.16,8.32-6.95,15.02-15.32,15.02-5.81,0-10.87-3.24-13.46-8.01-1.32-2.22-2.11-4.79-2.15-7.54v-.3c.16-8.32,6.96-15.02,15.32-15.02,5.84,0,10.92,3.27,13.5,8.07M79.74,171.73c7.24,4.18,16.48,1.77,20.78-5.36h0s.05-.08.07-.13c.02-.05.06-.08.08-.13h0c4.02-7.29,1.49-16.49-5.74-20.67-7.25-4.18-16.49-1.77-20.78,5.35h0s-.05.08-.08.13c-.02.04-.04.08-.07.12h.02c-4.03,7.3-1.49,16.5,5.75,20.68"/>
        <path class="cls-3" d="M426.5,222s-.01-.02-.02-.02c-.97-.7-2.14-1.11-3.43-1.11h-37.49l31.6-18.25c1.12-.64,1.93-1.59,2.42-2.68t.01-.01s0,0,0,0c2.05-3.24,2.22-7.6.08-11.3l-12.05-20.87-.15-.27-12.05-20.87c-2.13-3.7-6-5.73-9.82-5.58,0,0,0,0,0,0-.01,0-.02,0-.03,0-1.18-.13-2.41.11-3.53.75l-30.43,17.56,17.59-30.47c.65-1.11.88-2.34.75-3.53,0,0,0-.01,0-.02,0,0,0,0,0,0,.15-3.83-1.87-7.69-5.58-9.83l-20.86-12.05-.27-.15-20.87-12.05c-3.7-2.14-8.06-1.96-11.3.08h0s-.02.02-.02.02c-1.08.49-2.04,1.3-2.68,2.41l-17.82,30.85v-35.55c0-1.28-.4-2.46-1.11-3.43v-.02s0,0,0,0c-1.78-3.4-5.47-5.73-9.74-5.73h-48.51c-4.28,0-7.97,2.33-9.74,5.73,0,0,0,0,0,0-.01,0-.01.01-.01.02-.69.96-1.11,2.15-1.11,3.43v35.32l-17.67-30.62c-.64-1.1-1.59-1.92-2.68-2.41h-.01s-.01-.01-.01-.01c-3.23-2.06-7.59-2.22-11.29-.09l-20.88,12.05-.26.15-20.87,12.05c-3.7,2.14-5.73,5.99-5.58,9.82,0,0,0,0,0,0v.02c-.12,1.19.11,2.42.76,3.52l17.82,30.88-30.84-17.8c-1.11-.64-2.34-.87-3.52-.75,0,0-.02,0-.02,0,0,0-.02,0-.02,0-3.82-.16-7.68,1.88-9.83,5.58l-12.05,20.87-.15.26-12.05,20.88c-2.14,3.69-1.97,8.05.09,11.29,0,0,0,0,0,0,0,.01,0,.02.01.02.48,1.09,1.3,2.04,2.41,2.68l30.84,17.79h-35.59c-1.28,0-2.46.43-3.42,1.13,0,0-.02,0-.02,0-3.4,1.78-5.73,5.47-5.73,9.74v48.51c0,2.12.58,4.11,1.58,5.79,1.01,1.93,2.56,3.49,4.44,4.48h0s.02.02.03.02c.96.69,2.15,1.11,3.43,1.11h35.59l-30.84,17.8c-1.11.64-1.93,1.59-2.42,2.68,0,0-.02,0-.02.02,0,0,0,0,0,0-2.04,3.23-2.22,7.59-.08,11.29l12.05,20.88.16.27,12.06,20.87c2.13,3.7,5.99,5.73,9.83,5.58h.02c1.18.11,2.42-.11,3.53-.75l30.84-17.81-17.84,30.88c-.64,1.11-.87,2.35-.75,3.53,0,0,0,0,0,.02-.16,3.84,1.87,7.7,5.58,9.83l20.87,12.06.27.15,20.88,12.05c3.7,2.14,8.06,1.97,11.3-.08,0,0,0,0,.01,0v-.02c1.1-.49,2.05-1.3,2.69-2.42l17.67-30.61v35.32c0,1.27.42,2.46,1.13,3.42,0,0,0,.02,0,.02h0c1.77,3.41,5.47,5.74,9.74,5.74h48.51c4.27,0,7.96-2.32,9.74-5.73,0,0,0,0,.01,0,0,0,0-.02,0-.02.7-.96,1.11-2.15,1.11-3.42v-35.56l17.81,30.86c.65,1.11,1.6,1.92,2.69,2.41t.01.01c3.24,2.05,7.6,2.22,11.3.08l20.88-12.04.26-.16,20.87-12.04c3.7-2.13,5.73-6,5.58-9.83,0,0,0,0,0,0v-.02c.12-1.18-.12-2.41-.75-3.53l-17.6-30.48,30.44,17.58c1.1.64,2.33.87,3.52.75,0,0,.01,0,.02,0,0,0,0,0,0,0,3.83.16,7.7-1.86,9.82-5.57l12.06-20.87.15-.26,12.05-20.87c2.14-3.7,1.97-8.07-.08-11.29,0,0,0-.01,0-.01t-.01-.02c-.49-1.08-1.3-2.04-2.41-2.68l-31.6-18.24h36.89c.23,0,.44-.02.67-.04,1.14-.07,2.18-.47,3.05-1.11h.02c3.39-1.79,5.73-5.47,5.73-9.75v-48.5c0-4.28-2.34-7.96-5.73-9.74M142.8,165.23c.4-.69,1.28-.93,1.96-.53.04.02.07.04.11.08h.01s27.68,15.96,27.68,15.96c2.79,1.62,6.37.66,7.99-2.14.28-.48.47-.98.61-1.5v-.02c.39-1.44.23-3.04-.58-4.43l-15.98-27.69h.02s-.06-.07-.08-.11c-.4-.69-.16-1.56.53-1.96.59-.34,1.31-.22,1.75.25l20.52,35.53c.11.24.22.47.36.69l11.56,20.01-19.97-11.53c-.22-.14-.45-.25-.68-.35l-35.54-20.52c-.47-.44-.59-1.17-.25-1.76M114.42,232.84s.08,0,.13.01h0s31.97-.01,31.97-.01c3.22,0,5.84-2.62,5.84-5.86,0-1.04-.27-2.02-.75-2.86-.47-1.14-1.31-2.14-2.47-2.8l-27.69-15.98v-.02s-.07-.03-.11-.05c-.69-.39-.92-1.28-.53-1.97.34-.59,1.04-.85,1.65-.66l35.54,20.52c.21.14.42.29.66.42l19.96,11.53h-23.02c-.26,0-.52,0-.78.04h-41.04c-.29-.07-.55-.23-.74-.45-.04-.13-.06-.27-.06-.42,0-.8.64-1.44,1.43-1.44M122.77,309.35c-.62.19-1.31-.07-1.65-.66-.4-.69-.16-1.56.52-1.96.04-.02.07-.04.12-.05h0s27.68-16,27.68-16c1.74-1,2.76-2.77,2.9-4.64v-.05h0c.01-.16.02-.31.02-.46,0-1.15-.33-2.22-.91-3.13-.96-1.92-2.94-3.25-5.23-3.25h-32.1c-.43,0-.81-.18-1.07-.48-.04-.14-.06-.28-.06-.43,0-.68.47-1.26,1.1-1.4h41.04c.25.02.51.03.78.03h23.02l-19.97,11.53c-.22.14-.45.28-.65.42l-35.53,20.52ZM187.99,332.63c-.14.22-.25.46-.35.69l-20.52,35.54c-.44.47-1.17.6-1.76.25-.7-.39-.93-1.28-.53-1.97.02-.03.05-.06.07-.1h-.01l15.99-27.69c.8-1.4.96-2.99.58-4.44v-.02c-.14-.52-.33-1.01-.62-1.5-1.61-2.79-5.19-3.75-7.98-2.14l-27.68,15.99-.02-.02s-.07.05-.11.07c-.68.4-1.56.17-1.96-.53-.34-.59-.21-1.31.25-1.76l35.54-20.51c.23-.11.47-.22.69-.35l19.96-11.53-11.55,20.01ZM203.15,120.91c.69-.4,1.55-.17,1.96.52.02.03.04.07.06.12h.02s15.54,26.92,15.54,26.92c.86,2.18,2.97,3.72,5.45,3.72,1.4,0,2.69-.5,3.69-1.32h.01s.02-.02.02-.02c1.6-1.3,2.38-3.32,2.13-5.3v-31.18h.01s-.01-.09-.01-.13c0-.79.64-1.44,1.44-1.44.69,0,1.26.47,1.4,1.1v41.04c-.02.25-.04.51-.04.77v22.77l-11.4-19.75c-.13-.22-.28-.44-.42-.65l-20.51-35.53c-.19-.61.07-1.3.66-1.65M235.16,398.08c-.14.63-.71,1.11-1.4,1.11-.79,0-1.43-.64-1.43-1.44,0-.03,0-.08.01-.12h-.01v-31.23c.22-1.83-.44-3.69-1.82-4.97l-.11-.1h-.01c-1.04-.94-2.41-1.51-3.91-1.51-2.49,0-4.6,1.53-5.46,3.71l-15.55,26.94h-.01s-.03.07-.05.11c-.4.69-1.27.92-1.96.52-.6-.34-.85-1.03-.66-1.65l20.51-35.52c.15-.22.28-.44.42-.67l11.4-19.74v22.77c0,.26.01.51.04.77v41.03ZM276.03,154.95v-41.04c.14-.63.71-1.1,1.41-1.1.79,0,1.44.64,1.44,1.44,0,.04,0,.08-.01.13h.01v31.96c0,3.23,2.62,5.85,5.85,5.85,1.13,0,2.18-.32,3.08-.88.83-.5,1.55-1.21,2.06-2.11l15.99-27.67h0s.03-.07.06-.11c.39-.69,1.27-.93,1.96-.52.6.34.85,1.04.66,1.65l-20.51,35.54c-.15.21-.29.42-.42.65l-11.53,19.98v-22.99c0-.26-.01-.51-.04-.77M308.17,391.1c-.68.4-1.56.16-1.97-.52-.02-.03-.03-.07-.04-.13h-.02s-15.98-27.65-15.98-27.65c-.51-.88-1.2-1.58-2-2.07h0s0-.02,0-.02c-.9-.58-1.98-.9-3.13-.9-3.23,0-5.85,2.61-5.85,5.84v31.96h-.02c.02.05.02.09.02.13,0,.8-.65,1.45-1.44,1.45-.68,0-1.25-.48-1.4-1.11v-41.03c.03-.26.04-.52.04-.77v-22.98l11.53,19.97c.13.23.27.44.42.64l20.51,35.54c.19.62-.06,1.31-.66,1.66M323.33,179.37c.12-.23.24-.46.35-.69l20.52-35.54c.44-.47,1.17-.6,1.76-.25.69.4.92,1.28.53,1.96-.03.04-.05.07-.08.12h.01l-15.33,26.54c-1.71,1.83-2.12,4.63-.79,6.91.61,1.06,1.49,1.85,2.51,2.35,2.21,1.14,4.84.74,6.61-.86l26.54-15.32h0s.07-.05.09-.06c.7-.4,1.58-.17,1.97.53.34.59.22,1.32-.26,1.76l-35.53,20.52c-.24.1-.46.22-.69.35l-19.54,11.29,11.31-19.59ZM368.34,346.96c-.4.69-1.28.92-1.97.53-.03-.01-.07-.04-.1-.07h0s-26.54-15.31-26.54-15.31c-1.76-1.59-4.38-2.01-6.58-.88-1.03.49-1.94,1.3-2.55,2.36-1.32,2.29-.92,5.09.8,6.92l15.32,26.53h-.01s.06.08.08.12c.41.68.16,1.55-.53,1.96-.59.34-1.31.22-1.76-.25l-20.53-35.54c-.1-.23-.21-.45-.35-.69l-11.31-19.59,19.55,11.29c.23.12.45.25.69.35l35.54,20.52c.47.44.59,1.17.26,1.76M397.81,279.41h-.07s0,0,0,0h-31.96c-.16,0-.32,0-.48.02-1.64.05-3.1.77-4.14,1.9-.51.42-.94.94-1.29,1.55-1.62,2.79-.66,6.37,2.13,7.99l27.68,15.97h0s.08.05.12.07c.68.4.92,1.27.52,1.96-.35.6-1.03.86-1.65.67l-35.54-20.52c-.2-.14-.43-.29-.65-.42l-20.73-11.97h24.34c.19,0,.38-.01.57-.03h.28s40.95-.01,40.95-.01c.64.14,1.11.72,1.11,1.41s-.52,1.29-1.2,1.41M397.99,235.4h-40.82c-.25-.02-.51-.04-.77-.04h-24.94l20.73-11.96c.23-.13.45-.27.65-.42l35.54-20.52c.62-.19,1.3.07,1.65.66.4.69.16,1.56-.52,1.96-.04.02-.08.04-.13.06h0s-27.68,15.99-27.68,15.99c-2.8,1.61-3.76,5.19-2.14,7.98.57,1,1.39,1.76,2.35,2.26.99.76,2.22,1.21,3.57,1.21h31.95s.09,0,.13,0c.8,0,1.44.65,1.44,1.44,0,.65-.43,1.2-1.02,1.37"/>
      </g>
    </g>
  </g>
</svg>