<?xml version="1.0" encoding="UTF-8"?>
<svg id="Layer_1" data-name="Layer 1" xmlns="http://www.w3.org/2000/svg" xmlns:xlink="http://www.w3.org/1999/xlink" viewBox="0 0 512 512">
  <defs>
    <style>
      .cls-1 {
        fill: #000;
      }

      .cls-1, .cls-2 {
        stroke-width: 0px;
      }

      .cls-3 {
        clip-path: url(#clippath-2);
      }

      .cls-4 {
        clip-path: url(#clippath-6);
      }

      .cls-2 {
        fill: none;
      }

      .cls-5 {
        clip-path: url(#clippath-7);
      }

      .cls-6 {
        clip-path: url(#clippath-1);
      }

      .cls-7 {
        clip-path: url(#clippath-4);
      }

      .cls-8 {
        clip-path: url(#clippath-9);
      }

      .cls-9 {
        clip-path: url(#clippath);
      }

      .cls-10 {
        clip-path: url(#clippath-3);
      }

      .cls-11 {
        clip-path: url(#clippath-8);
      }

      .cls-12 {
        clip-path: url(#clippath-5);
      }
    </style>
    <clipPath id="clippath">
      <rect class="cls-2" x="46" y="48.78" width="420" height="414.44"/>
    </clipPath>
    <clipPath id="clippath-1">
      <rect class="cls-2" x="46" y="48.78" width="89.53" height="92.14"/>
    </clipPath>
    <clipPath id="clippath-2">
      <rect class="cls-2" x="231.95" y="48.78" width="92.71" height="92.14"/>
    </clipPath>
    <clipPath id="clippath-3">
      <rect class="cls-2" x="46" y="233.63" width="89.53" height="92.71"/>
    </clipPath>
    <clipPath id="clippath-4">
      <rect class="cls-2" x="46" y="48.78" width="420" height="414.44"/>
    </clipPath>
    <clipPath id="clippath-5">
      <rect class="cls-2" x="46" y="155.75" width="59.86" height="18.54"/>
    </clipPath>
    <clipPath id="clippath-6">
      <rect class="cls-2" x="46" y="48.78" width="420" height="414.44"/>
    </clipPath>
    <clipPath id="clippath-7">
      <rect class="cls-2" x="46" y="196.55" width="15.36" height="25.96"/>
    </clipPath>
    <clipPath id="clippath-8">
      <rect class="cls-2" x="46" y="48.78" width="420" height="414.44"/>
    </clipPath>
    <clipPath id="clippath-9">
      <rect class="cls-2" x="246.79" y="244.76" width="219.21" height="218.46"/>
    </clipPath>
  </defs>
  <g id="install-pwa">
    <g class="cls-9">
      <g class="cls-6">
        <path class="cls-1" d="M128.01,137.43H52.55c-3.74,0-6.8-3.04-6.8-6.77V55.55c0-3.75,3.06-6.76,6.8-6.76h75.46c3.74,0,6.78,3.03,6.78,6.76v75.11c0,3.74-3.04,6.77-6.78,6.77M59.34,123.89h61.87v-61.6h-61.87v61.6Z"/>
      </g>
      <g class="cls-3">
        <path class="cls-1" d="M316.64,137.43h-75.46c-3.74,0-6.8-3.04-6.8-6.77V55.55c0-3.75,3.06-6.76,6.8-6.76h75.46c3.74,0,6.78,3.03,6.78,6.76v75.11c.01,3.74-3.03,6.77-6.78,6.77M247.98,123.89h61.87v-61.6h-61.87v61.6Z"/>
      </g>
      <g class="cls-10">
        <path class="cls-1" d="M128.01,325.23H52.55c-3.74,0-6.8-3.03-6.8-6.75v-75.13c0-3.75,3.06-6.76,6.8-6.76h75.46c3.74,0,6.78,3.03,6.78,6.76v75.13c0,3.72-3.04,6.75-6.78,6.75M59.34,311.7h61.87v-61.6h-61.87v61.6Z"/>
      </g>
      <g class="cls-7">
        <path class="cls-1" d="M161.95,119.07c-3.74,0-6.78-3.03-6.78-6.76v-42.16c0-3.74,3.04-6.75,6.78-6.75s6.8,3.03,6.8,6.75v42.14c0,3.75-3.04,6.78-6.8,6.78"/>
        <path class="cls-1" d="M206.82,119.07h-44.86c-3.74,0-6.78-3.03-6.78-6.76s3.04-6.77,6.78-6.77h44.86c3.74,0,6.78,3.04,6.78,6.77s-3.04,6.76-6.78,6.76"/>
      </g>
      <g class="cls-12">
        <path class="cls-1" d="M95.62,170.99h-43.08c-3.74,0-6.78-3.03-6.78-6.76s3.04-6.75,6.78-6.75h43.08c3.74,0,6.78,3.03,6.78,6.75s-3.03,6.76-6.78,6.76"/>
      </g>
      <g class="cls-4">
        <path class="cls-1" d="M160.89,191.5h-43.08c-3.74,0-6.78-3.03-6.78-6.76s3.04-6.75,6.78-6.75h43.08c3.74,0,6.8,3.03,6.8,6.75s-3.06,6.76-6.8,6.76"/>
        <path class="cls-1" d="M117.81,211.54c-3.74,0-6.78-3.03-6.78-6.76v-20.03c0-3.74,3.04-6.75,6.78-6.75s6.8,3.03,6.8,6.75v20.03c0,3.75-3.04,6.76-6.8,6.76"/>
        <path class="cls-1" d="M206.82,165.85c-3.75,0-6.8-3.03-6.8-6.76v-46.78c0-3.74,3.04-6.76,6.8-6.76s6.78,3.04,6.78,6.76v46.78c0,3.74-3.04,6.76-6.78,6.76"/>
      </g>
      <g class="cls-5">
        <path class="cls-1" d="M52.53,219.67c-3.74,0-6.78-3.03-6.78-6.75v-6.51c0-3.74,3.04-6.76,6.78-6.76s6.8,3.03,6.8,6.76v6.51c.01,3.74-3.03,6.75-6.8,6.75"/>
      </g>
      <g class="cls-11">
        <path class="cls-1" d="M273.89,179.37h-32.7c-3.74,0-6.8-3.03-6.8-6.75s3.06-6.76,6.8-6.76h32.7c3.74,0,6.8,3.03,6.8,6.76s-3.06,6.75-6.8,6.75"/>
        <path class="cls-1" d="M316.64,217.32c-3.75,0-6.8-3.03-6.8-6.76v-27.92c0-3.75,3.04-6.76,6.8-6.76s6.78,3.03,6.78,6.76v27.92c.01,3.74-3.03,6.76-6.78,6.76"/>
        <path class="cls-1" d="M271.67,238.22h-32.7c-3.74,0-6.78-3.04-6.78-6.76s3.04-6.77,6.78-6.77h32.7c3.75,0,6.8,3.03,6.8,6.77.01,3.72-3.03,6.76-6.8,6.76"/>
        <path class="cls-1" d="M238.98,298.32c-3.74,0-6.78-3.03-6.78-6.76v-60.09c0-3.74,3.04-6.77,6.78-6.77s6.8,3.03,6.8,6.77v60.09c0,3.74-3.04,6.76-6.8,6.76"/>
        <path class="cls-1" d="M206.82,325.23h-10.29c-3.74,0-6.78-3.03-6.78-6.75s3.04-6.76,6.78-6.76h10.29c3.74,0,6.78,3.03,6.78,6.76s-3.04,6.75-6.78,6.75"/>
        <path class="cls-1" d="M161.95,325.23c-3.74,0-6.78-3.03-6.78-6.75v-33.81c0-3.74,3.04-6.75,6.78-6.75s6.8,3.03,6.8,6.75v33.81c0,3.72-3.04,6.75-6.8,6.75"/>
        <path class="cls-1" d="M206.82,243.86h-33.75c-3.74,0-6.78-3.04-6.78-6.76s3.04-6.77,6.78-6.77h33.75c3.74,0,6.78,3.03,6.78,6.77s-3.04,6.76-6.78,6.76"/>
        <path class="cls-1" d="M206.82,243.86c-3.75,0-6.8-3.04-6.8-6.76v-22.54c0-3.74,3.04-6.75,6.8-6.75s6.78,3.03,6.78,6.75v22.54c0,3.72-3.04,6.76-6.78,6.76"/>
      </g>
      <g class="cls-8">
        <path class="cls-1" d="M365.64,463.22h-.39l-19.11-.42c-4.78-.11-9.23-2.07-12.53-5.5-3.3-3.45-5.09-7.95-4.97-12.73.03-1.8-1.04-3.48-2.62-4.06-3.52-1.29-6.98-2.81-10.29-4.51-1.52-.8-3.45-.46-4.78.8-3.46,3.3-8.01,5.01-12.79,4.95-4.78-.1-9.23-2.06-12.55-5.5l-13.21-13.76c-3.32-3.42-5.08-7.94-4.97-12.7.1-4.77,2.06-9.2,5.52-12.5,1.36-1.29,1.75-3.17,1.04-4.74-1.58-3.4-2.94-6.88-4.06-10.4-.52-1.62-2.12-2.74-3.96-2.78-4.81-.1-9.27-2.06-12.57-5.5-3.3-3.43-5.07-7.94-4.97-12.72l.43-19.02c.22-9.81,8.42-17.5,18.3-17.43.07,0,.13.01.2.01,1.77-.03,3.33-1.06,3.9-2.61,1.3-3.49,2.83-6.93,4.53-10.21.78-1.54.46-3.44-.81-4.75-3.33-3.48-5.1-8-5-12.76.1-4.77,2.07-9.2,5.53-12.49l13.82-13.15c7.14-6.78,18.5-6.53,25.32.55,1.29,1.35,3.2,1.77,4.77,1.04,3.33-1.54,6.87-2.9,10.46-4.04,1.64-.52,2.75-2.1,2.8-3.94.22-9.81,8.45-17.47,18.3-17.44l19.11.44c4.8.1,9.24,2.06,12.55,5.49,3.3,3.45,5.07,7.95,4.97,12.73-.04,1.82,1.02,3.46,2.62,4.06,3.5,1.3,6.94,2.81,10.24,4.51,1.52.78,3.45.46,4.78-.8,7.17-6.81,18.53-6.56,25.35.52l13.21,13.76c6.84,7.11,6.58,18.41-.55,25.21-1.36,1.29-1.77,3.19-1.04,4.75,1.56,3.39,2.94,6.88,4.06,10.42.52,1.62,2.11,2.74,3.94,2.78.11.02.23.02.35.02,4.66.19,9.01,2.13,12.24,5.5,3.3,3.43,5.07,7.94,4.97,12.71l-.43,19.03c-.1,4.77-2.07,9.18-5.54,12.49-3.46,3.29-7.97,4.88-12.78,4.93-1.78-.09-3.5,1.01-4.1,2.61-1.29,3.46-2.8,6.88-4.52,10.2-.8,1.54-.46,3.43.81,4.75,3.33,3.48,5.1,8,5,12.76-.12,4.76-2.07,9.2-5.54,12.49l-13.82,13.16c-3.46,3.29-7.97,4.97-12.78,4.95-4.78-.12-9.23-2.07-12.54-5.5-1.28-1.34-3.19-1.74-4.75-1.03-3.37,1.55-6.91,2.91-10.44,4.06-1.62.52-2.75,2.1-2.8,3.94-.22,9.66-8.23,17.41-17.92,17.41M313.96,422.06c2.72,0,5.48.64,8,1.93,2.81,1.45,5.77,2.75,8.75,3.84,7.05,2.58,11.68,9.43,11.5,17.04-.03,1.16.41,2.25,1.2,3.07.8.83,1.87,1.3,3.03,1.32l19.11.44c2.39-.18,4.38-1.84,4.42-4.22.18-7.6,5.1-14.24,12.24-16.51,3.03-.97,6.01-2.13,8.91-3.46,6.82-3.13,14.96-1.55,20.24,3.96.81.82,1.87,1.3,3.03,1.33,1.23.04,2.26-.41,3.09-1.2l13.82-13.15c1.72-1.64,1.78-4.38.13-6.08-5.32-5.52-6.53-13.69-3.08-20.34,1.45-2.81,2.75-5.74,3.84-8.68,2.59-7.01,9.39-11.55,17.11-11.45,1.17-.1,2.29-.39,3.12-1.19.84-.81,1.32-1.87,1.33-3.03l.42-19.02c.03-1.15-.39-2.23-1.19-3.07-.8-.83-1.88-1.29-3.03-1.32-.13-.02-.24-.02-.36-.03-7.5-.28-14.02-5.14-16.27-12.17-.97-3-2.11-6-3.46-8.86-3.14-6.81-1.56-14.91,3.97-20.15,1.75-1.68,1.81-4.4.16-6.11l-13.23-13.76c-.78-.83-1.87-1.29-3.03-1.33-1.17-.06-2.24.41-3.1,1.19-5.53,5.27-13.73,6.51-20.41,3.07-2.81-1.45-5.75-2.72-8.74-3.82-7.04-2.58-11.66-9.43-11.49-17.04.03-1.16-.41-2.24-1.2-3.08-.78-.83-1.87-1.29-3.03-1.32l-19.11-.43c-2.4-.07-4.37,1.84-4.42,4.21-.18,7.61-5.08,14.24-12.24,16.52-3.06.97-6.06,2.13-8.91,3.45-6.82,3.13-14.95,1.55-20.24-3.94-.83-.86-1.91-1.34-3.06-1.36-1.13.16-2.25.41-3.09,1.19l-13.8,13.17c-1.74,1.64-1.78,4.37-.13,6.08,5.3,5.52,6.52,13.68,3.08,20.32-1.45,2.8-2.74,5.74-3.84,8.72-2.61,7.01-9.56,11.55-17.11,11.44-.07,0-.13-.01-.2-.01-2.32.04-4.2,1.9-4.24,4.22l-.43,19.01c-.03,1.16.41,2.24,1.2,3.07.78.83,1.87,1.3,3.03,1.33,7.66.18,14.33,5.09,16.62,12.2.97,2.98,2.13,5.97,3.46,8.84,3.16,6.81,1.57,14.89-3.95,20.15-.86.83-1.34,1.9-1.36,3.04-.03,1.16.41,2.25,1.2,3.07l13.21,13.76c.8.82,1.87,1.3,3.03,1.33,1.2-.06,2.26-.41,3.08-1.2,3.45-3.23,7.92-4.94,12.43-4.94M460.54,365.83h.07-.07ZM358.12,400.91c-.35,0-.68,0-1.03-.01-5.29-.12-10.44-1.1-15.33-2.91-1.74-.61-3.52-1.4-5.23-2.29-9.24-4.74-16.79-12.57-21.19-22.08-.8-1.72-1.49-3.49-2.07-5.3-1.58-4.88-2.33-10.05-2.22-15.3.12-5.24,1.1-10.39,2.93-15.24.64-1.74,1.4-3.5,2.3-5.2,4.75-9.23,12.63-16.74,22.18-21.11,1.68-.78,3.49-1.49,5.33-2.06,4.88-1.56,10.05-2.26,15.34-2.2,5.3.11,10.46,1.1,15.34,2.93,2.07.72,4.39,1.77,6.74,3.08,7.92,4.39,14.3,10.89,18.46,18.81,1.39,2.63,2.48,5.26,3.26,7.78,1.58,4.87,2.33,10.04,2.22,15.27-.11,5.24-1.12,10.39-2.91,15.24-.64,1.72-1.4,3.46-2.27,5.14t-.02.01c-4.78,9.27-12.66,16.79-22.19,21.15-1.71.81-3.54,1.5-5.37,2.06-4.48,1.48-9.32,2.23-14.25,2.23M358.1,320.73c-3.49,0-6.93.54-10.2,1.58-1.33.42-2.55.9-3.72,1.45-6.84,3.11-12.44,8.44-15.83,15.05-.62,1.2-1.17,2.42-1.62,3.64-1.3,3.51-2,7.14-2.07,10.88-.09,3.74.45,7.4,1.58,10.89.42,1.32.92,2.55,1.47,3.77,3.11,6.74,8.49,12.33,15.11,15.7,1.19.62,2.39,1.16,3.61,1.59,3.56,1.32,7.23,2.01,10.96,2.1,3.78.13,7.46-.45,10.94-1.58,1.36-.42,2.56-.88,3.74-1.44,6.84-3.11,12.44-8.46,15.83-15.05.6-1.17,1.15-2.39,1.59-3.64,1.32-3.51,2.01-7.14,2.1-10.88.07-3.72-.45-7.39-1.59-10.89-.55-1.81-1.35-3.68-2.34-5.6-2.91-5.55-7.42-10.14-13.03-13.23-1.68-.94-3.27-1.68-4.78-2.19-3.57-1.35-7.22-2.04-10.97-2.11-.26-.04-.51-.04-.77-.04M393.93,372.39h.06-.06Z"/>
      </g>
    </g>
  </g>
</svg>