<?xml version="1.0" encoding="UTF-8"?>
<svg id="Layer_1" data-name="Layer 1" xmlns="http://www.w3.org/2000/svg" xmlns:xlink="http://www.w3.org/1999/xlink" viewBox="0 0 540 720">
  <defs>
    <style>
      .cls-1 {
        fill: #000;
      }

      .cls-1, .cls-2 {
        stroke-width: 0px;
      }

      .cls-3 {
        clip-path: url(#clippath-2);
      }

      .cls-2 {
        fill: none;
      }

      .cls-4 {
        clip-path: url(#clippath-1);
      }

      .cls-5 {
        clip-path: url(#clippath);
      }

      .cls-6 {
        clip-path: url(#clippath-3);
      }
    </style>
    <clipPath id="clippath">
      <rect class="cls-2" x="34" y="62.88" width="472" height="594.24"/>
    </clipPath>
    <clipPath id="clippath-1">
      <rect class="cls-2" x="34" y="62.88" width="472" height="594.24"/>
    </clipPath>
    <clipPath id="clippath-2">
      <rect class="cls-2" x="138.96" y="62.88" width="367.03" height="594.24"/>
    </clipPath>
    <clipPath id="clippath-3">
      <rect class="cls-2" x="34" y="62.88" width="472" height="594.24"/>
    </clipPath>
  </defs>
  <g id="splash-demo">
    <g class="cls-5">
      <g class="cls-4">
        <path class="cls-1" d="M253.58,174.99h-43.6c-1.36,0-2.64.25-3.9.78-1.22.5-2.34,1.22-3.28,2.2-.95.95-1.67,2.03-2.2,3.28-.5,1.22-.78,2.53-.78,3.87v43.49c0,1.34.28,2.62.78,3.87.53,1.22,1.25,2.34,2.2,3.28.95.95,2.06,1.67,3.28,2.2,1.25.5,2.53.75,3.9.75h43.6c1.34,0,2.62-.25,3.87-.75,1.25-.53,2.34-1.25,3.28-2.2.95-.95,1.7-2.06,2.2-3.28.53-1.25.78-2.53.78-3.87v-43.49c0-1.34-.25-2.64-.78-3.87-.5-1.25-1.25-2.34-2.2-3.28-.95-.97-2.03-1.7-3.28-2.2-1.25-.53-2.53-.78-3.87-.78M243.43,218.49h-23.32v-23.23h23.32v23.23Z"/>
        <path class="cls-1" d="M320.59,238.72h43.6c1.34,0,2.64-.25,3.87-.75,1.25-.53,2.34-1.25,3.31-2.2.95-.95,1.67-2.06,2.2-3.28.5-1.25.75-2.53.75-3.87v-43.49c0-1.34-.25-2.64-.75-3.87-.53-1.25-1.25-2.34-2.2-3.28-.97-.97-2.06-1.7-3.31-2.2-1.22-.53-2.53-.78-3.87-.78h-43.6c-1.34,0-2.62.25-3.87.78-1.25.5-2.34,1.22-3.28,2.2-.97.95-1.7,2.03-2.2,3.28-.53,1.22-.78,2.53-.78,3.87v43.49c0,1.34.25,2.62.78,3.87.5,1.22,1.22,2.34,2.2,3.28.95.95,2.03,1.67,3.28,2.2,1.25.5,2.53.75,3.87.75M330.75,195.22h23.29v23.26h-23.29v-23.26Z"/>
        <path class="cls-1" d="M209.98,351.05h43.6c1.34,0,2.62-.25,3.87-.78,1.25-.5,2.34-1.22,3.28-2.2.95-.95,1.7-2.03,2.2-3.28.53-1.22.78-2.53.78-3.87v-43.49c0-1.34-.25-2.62-.78-3.87-.5-1.25-1.25-2.34-2.2-3.28-.95-.95-2.03-1.67-3.28-2.2-1.25-.5-2.53-.78-3.87-.78h-43.6c-1.36,0-2.64.28-3.9.78-1.22.53-2.34,1.25-3.28,2.2-.95.95-1.67,2.03-2.2,3.28-.5,1.25-.78,2.53-.78,3.87v43.52c0,1.34.28,2.64.78,3.87.53,1.25,1.25,2.34,2.2,3.28.97.95,2.06,1.67,3.31,2.17,1.22.53,2.5.78,3.87.78M220.11,307.53h23.32v23.26h-23.32v-23.26Z"/>
        <path class="cls-1" d="M310.46,340.93c0,1.34.25,2.64.78,3.87.5,1.25,1.22,2.34,2.2,3.28.95.97,2.03,1.7,3.28,2.2,1.25.53,2.53.78,3.87.78h43.6c1.34,0,2.64-.25,3.87-.78,1.25-.5,2.34-1.22,3.31-2.2.95-.95,1.67-2.03,2.2-3.28.5-1.22.75-2.53.75-3.87v-43.49c0-1.34-.25-2.62-.75-3.87-.53-1.25-1.25-2.34-2.2-3.28-.97-.95-2.06-1.67-3.31-2.2-1.22-.5-2.53-.78-3.87-.78h-43.6c-1.34,0-2.62.28-3.87.78-1.25.53-2.34,1.25-3.28,2.2-.97.95-1.7,2.03-2.2,3.28-.53,1.25-.78,2.53-.78,3.87v43.49ZM330.75,307.53h23.29v23.26h-23.29v-23.26Z"/>
        <path class="cls-1" d="M286.39,174.99c-1.36,0-2.64.25-3.9.78-1.25.5-2.34,1.22-3.28,2.2-.95.95-1.7,2.03-2.2,3.28-.53,1.22-.78,2.53-.78,3.87v43.49c0,1.34.25,2.62.78,3.87.5,1.22,1.25,2.34,2.2,3.28.95.95,2.03,1.67,3.28,2.2,1.25.5,2.53.75,3.9.75s2.62-.25,3.87-.75c1.25-.53,2.34-1.25,3.28-2.2.95-.95,1.7-2.06,2.2-3.28.53-1.25.78-2.53.78-3.87v-43.49c0-1.34-.25-2.64-.78-3.87-.5-1.25-1.25-2.34-2.2-3.28-.95-.97-2.03-1.7-3.28-2.2-1.25-.53-2.53-.78-3.87-.78"/>
        <path class="cls-1" d="M320.59,273.36h43.6c1.34,0,2.64-.25,3.87-.75,1.25-.53,2.34-1.25,3.31-2.2.95-.95,1.67-2.06,2.2-3.28.5-1.25.75-2.53.75-3.87s-.25-2.64-.75-3.87c-.53-1.25-1.25-2.34-2.2-3.28-.97-.97-2.06-1.7-3.31-2.2-1.22-.53-2.53-.78-3.87-.78h-43.6c-1.34,0-2.62.25-3.87.78-1.25.5-2.34,1.22-3.28,2.2-.97.95-1.7,2.03-2.2,3.28-.53,1.22-.78,2.5-.78,3.87s.25,2.62.78,3.87c.5,1.22,1.22,2.34,2.2,3.28.95.95,2.03,1.67,3.28,2.2,1.25.5,2.53.75,3.87.75"/>
        <path class="cls-1" d="M296.52,340.92v-10.77c0-1.34-.25-2.62-.78-3.87-.5-1.22-1.25-2.34-2.2-3.28-.95-.95-2.03-1.67-3.28-2.2-1.25-.5-2.53-.75-3.87-.75s-2.64.25-3.9.75c-1.25.53-2.34,1.25-3.28,2.2-.95.95-1.7,2.06-2.2,3.28-.53,1.25-.78,2.53-.78,3.87v10.77c0,1.34.25,2.64.78,3.87.5,1.25,1.25,2.34,2.2,3.28.95.97,2.03,1.7,3.28,2.2,1.25.53,2.53.78,3.9.78s2.62-.25,3.87-.78c1.25-.5,2.34-1.22,3.28-2.2.95-.95,1.7-2.03,2.2-3.28.53-1.22.78-2.53.78-3.87"/>
        <path class="cls-1" d="M250.47,263.26c0,1.34.25,2.62.75,3.87.53,1.22,1.25,2.34,2.2,3.28.97.95,2.06,1.67,3.31,2.2,1.22.5,2.53.75,3.87.75h15.64v31.05c0,1.34.25,2.64.78,3.87.5,1.25,1.25,2.34,2.2,3.28.95.95,2.03,1.7,3.28,2.2,1.25.53,2.53.78,3.9.78s2.62-.25,3.87-.78c1.25-.5,2.34-1.25,3.28-2.2.95-.95,1.7-2.03,2.2-3.28.53-1.22.78-2.53.78-3.87v-41.16c0-1.36-.25-2.64-.78-3.87-.5-1.25-1.25-2.34-2.2-3.28-.95-.97-2.03-1.7-3.28-2.2-1.25-.53-2.53-.78-3.87-.78h-25.8c-1.34,0-2.64.25-3.87.78-1.25.5-2.34,1.22-3.31,2.2-.95.95-1.67,2.03-2.17,3.28-.53,1.22-.78,2.51-.78,3.87"/>
        <path class="cls-1" d="M208.09,273.36h23.68c1.34,0,2.64-.25,3.87-.75,1.25-.53,2.34-1.25,3.28-2.2.97-.95,1.7-2.06,2.2-3.28.53-1.25.78-2.53.78-3.87s-.25-2.64-.78-3.87c-.5-1.25-1.22-2.34-2.2-3.28-.95-.97-2.03-1.7-3.28-2.2-1.22-.53-2.53-.78-3.87-.78h-23.68c-1.34,0-2.62.25-3.87.78-1.25.5-2.34,1.22-3.28,2.2-.95.95-1.7,2.03-2.2,3.28-.53,1.22-.78,2.5-.78,3.87s.25,2.62.78,3.87c.5,1.22,1.25,2.34,2.2,3.28.95.95,2.03,1.67,3.28,2.2,1.25.5,2.53.75,3.87.75"/>
      </g>
      <g class="cls-3">
        <path class="cls-1" d="M154.21,223.41c1.34,0,2.64-.25,3.89-.78,1.22-.5,2.34-1.25,3.28-2.2.95-.95,1.67-2.03,2.2-3.28.5-1.22.78-2.53.78-3.87v-116.46c0-1.86.36-3.65,1.08-5.37.7-1.7,1.73-3.23,3.03-4.54,1.31-1.31,2.84-2.31,4.56-3.01,1.73-.72,3.51-1.06,5.37-1.06h215.43c1.87,0,3.65.33,5.37,1.06,1.73.7,3.23,1.7,4.56,3.01,1.31,1.31,2.34,2.84,3.03,4.54.72,1.73,1.09,3.51,1.09,5.37v197.07l-2.56,2.56c-1.5,1.5-2.87,3.12-4.06,4.87-1.2,1.78-2.23,3.62-3.06,5.56-.86,1.95-1.5,3.98-1.98,6.04-.47,2.09-.72,4.2-.78,6.32-.08,2.11.06,4.23.42,6.34.33,2.09.86,4.15,1.59,6.15.75,1.98,1.67,3.89,2.76,5.73,1.09,1.81,2.37,3.51,3.78,5.09l.06.14c.39.56.84,1.06,1.28,1.56.33.28.69.56,1.09.84,4.29,3.95,9.24,6.59,14.92,7.96l-15.97,15.94c-1.5,1.5-2.87,3.14-4.06,4.9-1.22,1.75-2.23,3.62-3.09,5.56-.83,1.95-1.5,3.98-1.98,6.04-.45,2.09-.72,4.17-.78,6.32-.06,2.11.08,4.23.42,6.34.33,2.09.89,4.15,1.61,6.15.72,2,1.64,3.89,2.76,5.73,1.09,1.81,2.34,3.53,3.76,5.12l.06.08c.39.56.84,1.06,1.28,1.56.17.14.36.25.5.39,6.26,6.01,13.72,9.13,22.37,9.38l-22.85,22.79c-1.59,1.59-2.98,3.28-4.23,5.12-1.22,1.84-2.28,3.78-3.12,5.84-.86,2.06-1.5,4.17-1.95,6.34-.42,2.17-.64,4.37-.64,6.59s.22,4.4.64,6.6c.45,2.17,1.09,4.29,1.95,6.32.84,2.06,1.89,4.01,3.12,5.84,1.25,1.87,2.64,3.56,4.23,5.12.81.75,1.67,1.45,2.56,2.11v25.29c0,1.86-.36,3.65-1.09,5.37-.7,1.7-1.73,3.23-3.03,4.54-1.31,1.31-2.84,2.34-4.56,3.06-1.73.7-3.51,1.06-5.37,1.06h-162.09c-1.36,0-2.64.25-3.9.78-1.22.5-2.34,1.25-3.28,2.2-.95.95-1.67,2.03-2.2,3.28-.5,1.22-.78,2.53-.78,3.87s.28,2.64.78,3.87c.53,1.25,1.25,2.34,2.2,3.28.95.95,2.06,1.67,3.28,2.2,1.25.5,2.53.78,3.9.78h101.54c-18.39,18.31-53.9,38.79-121.49,41.43-6.93.22-12.75,2.89-17.45,8.01l-28.44,31.22c-.92.97-1.61,2.11-2.06,3.37-.47,1.28-.67,2.59-.61,3.92.05,1.34.39,2.62.95,3.84.58,1.22,1.36,2.28,2.36,3.2,1,.89,2.11,1.59,3.4,2.03s2.59.64,3.92.58c1.34-.06,2.62-.39,3.84-.97,1.22-.56,2.28-1.36,3.2-2.34l28.44-31.22c.86-.92,1.92-1.39,3.17-1.39,91.02-3.59,130.73-38.23,147.29-61.69h34c2.25,0,4.48-.22,6.71-.67,2.2-.45,4.34-1.09,6.43-1.95s4.06-1.92,5.93-3.17c1.89-1.25,3.62-2.67,5.2-4.26,1.61-1.59,3.03-3.34,4.29-5.2,1.25-1.87,2.31-3.84,3.17-5.93.86-2.06,1.5-4.2,1.95-6.43.44-2.2.67-4.42.67-6.68v-17.59c.36,0,.72.08,1.09.08,4.51.03,8.82-.83,12.97-2.56,4.15-1.7,7.82-4.15,10.96-7.35l23.74-23.65c2.34-2.34,4.29-4.95,5.87-7.85,1.56-2.89,2.7-5.96,3.37-9.18s.86-6.46.58-9.74c-.28-3.28-1.03-6.46-2.25-9.54-1.22-3.06-2.84-5.87-4.9-8.46-2.03-2.59-4.42-4.81-7.12-6.71-2.7-1.89-5.62-3.37-8.77-4.4-3.12-1.03-6.34-1.59-9.63-1.7l22.85-22.79c1.56-1.56,2.95-3.28,4.2-5.12,1.22-1.84,2.25-3.78,3.12-5.84.83-2.06,1.47-4.17,1.92-6.34.42-2.17.64-4.37.64-6.6s-.22-4.4-.64-6.57c-.45-2.17-1.09-4.29-1.92-6.34-.86-2.06-1.89-4.01-3.12-5.84-1.25-1.84-2.64-3.56-4.2-5.12-4.51-4.45-9.82-7.4-16-8.82l16-15.94c2.45-2.45,4.48-5.18,6.09-8.24,1.61-3.06,2.73-6.29,3.34-9.68.61-3.42.7-6.82.25-10.24-.44-3.42-1.39-6.71-2.84-9.85-1.45-3.14-3.34-5.98-5.68-8.54-2.31-2.56-4.98-4.7-7.99-6.43-2.98-1.73-6.15-2.98-9.54-3.73-3.37-.78-6.79-1-10.24-.7l41.6-41.57c1.7-1.7,3.23-3.53,4.54-5.51,1.34-2,2.48-4.09,3.4-6.29.92-2.23,1.61-4.48,2.09-6.82.44-2.36.69-4.73.69-7.12s-.22-4.73-.69-7.1c-.47-2.34-1.14-4.62-2.06-6.82-.92-2.2-2.03-4.31-3.37-6.29-1.34-2-2.84-3.84-4.54-5.54-1.7-1.67-3.53-3.2-5.51-4.51-2-1.34-4.09-2.48-6.32-3.37-2.2-.92-4.48-1.61-6.82-2.09-2.36-.47-4.73-.69-7.12-.69-2.39-.03-4.76.22-7.12.67-2.34.47-4.62,1.17-6.82,2.09-2.23.89-4.31,2.03-6.32,3.34-2,1.34-3.84,2.84-5.54,4.54l-12.24,12.22v-85.48c0-2.25-.22-4.48-.67-6.68-.45-2.23-1.09-4.34-1.95-6.43-.89-2.09-1.95-4.04-3.2-5.93-1.25-1.86-2.67-3.59-4.26-5.18-1.59-1.59-3.34-3.01-5.2-4.26-1.87-1.25-3.84-2.28-5.93-3.15-2.09-.86-4.23-1.5-6.43-1.95-2.23-.44-4.45-.67-6.71-.67h-215.43c-2.25,0-4.48.22-6.71.67-2.2.45-4.34,1.09-6.43,1.95-2.09.86-4.06,1.89-5.93,3.15-1.87,1.25-3.62,2.67-5.2,4.26-1.59,1.59-3.01,3.31-4.26,5.18-1.28,1.89-2.34,3.84-3.2,5.93-.86,2.09-1.5,4.2-1.95,6.43-.45,2.2-.67,4.42-.67,6.68v116.46c0,1.34.25,2.64.75,3.87.53,1.25,1.25,2.34,2.2,3.28.97.95,2.06,1.7,3.31,2.2,1.22.53,2.53.78,3.87.78M462.59,459.16l-23.71,23.68c-1.28,1.22-2.76,2.17-4.42,2.84-1.67.67-3.39,1-5.18,1s-3.51-.33-5.15-1c-1.67-.67-3.15-1.61-4.42-2.84-1.28-1.28-2.25-2.73-2.95-4.4-.69-1.64-1.03-3.37-1.03-5.18s.33-3.53,1.03-5.18c.7-1.67,1.67-3.12,2.95-4.4l23.71-23.68c1.28-1.22,2.73-2.2,4.4-2.84,1.64-.67,3.37-1,5.15-.97,1.78,0,3.51.36,5.15,1.06,1.64.67,3.09,1.64,4.34,2.89,1.25,1.28,2.23,2.73,2.92,4.37.7,1.61,1.03,3.34,1.06,5.12,0,1.78-.31,3.48-.97,5.15-.67,1.64-1.61,3.09-2.87,4.37M462.59,378.83l-23.71,23.65c-1.28,1.28-2.76,2.25-4.4,2.92-1.67.69-3.4,1.03-5.2,1.03s-3.53-.33-5.18-1.03c-1.67-.67-3.15-1.64-4.4-2.92-1.28-1.25-2.25-2.73-2.95-4.4-.69-1.64-1.03-3.37-1.03-5.18s.33-3.51,1.03-5.18c.7-1.67,1.67-3.12,2.95-4.4l23.71-23.68c1.25-1.28,2.73-2.31,4.4-3,1.67-.72,3.42-1.09,5.23-1.09,1.81-.03,3.56.31,5.26,1,1.67.7,3.15,1.67,4.45,2.95,1.28,1.28,2.25,2.76,2.95,4.45.69,1.67,1.03,3.42,1,5.23,0,1.81-.36,3.56-1.09,5.23-.72,1.67-1.73,3.12-3.03,4.4M462.59,287.11c1.28,1.28,2.25,2.73,2.95,4.4.67,1.64,1.03,3.37,1.03,5.18s-.36,3.51-1.03,5.18c-.7,1.67-1.67,3.12-2.95,4.4l-23.71,23.68c-1.28,1.25-2.73,2.23-4.4,2.92-1.67.67-3.4,1.03-5.18,1.03s-3.53-.36-5.2-1.03c-1.64-.7-3.12-1.67-4.4-2.92l-.03-.06c-1.28-1.28-2.25-2.73-2.95-4.37-.67-1.67-1.03-3.39-1.03-5.18s.36-3.53,1.03-5.18c.7-1.67,1.67-3.12,2.95-4.4l23.71-23.65c1.28-1.28,2.76-2.25,4.4-2.95,1.67-.67,3.4-1.03,5.2-1.03s3.53.36,5.18,1.03c1.67.7,3.14,1.67,4.42,2.95M454.8,184.4c1.53-1.47,3.28-2.59,5.26-3.37,1.98-.81,4.04-1.2,6.18-1.2s4.17.39,6.15,1.2c1.98.78,3.73,1.89,5.29,3.37,1.53,1.5,2.73,3.26,3.56,5.23.84,1.98,1.25,4.04,1.25,6.21s-.42,4.2-1.25,6.18c-.83,1.98-2.03,3.73-3.56,5.23l-49.48,49.42v-45.72l26.6-26.55Z"/>
      </g>
      <g class="cls-6">
        <path class="cls-1" d="M216.38,455.15c0,1.34.25,2.62.78,3.87.5,1.25,1.22,2.34,2.2,3.28.95.95,2.03,1.67,3.28,2.2,1.22.5,2.53.78,3.87.78h130.34c1.34,0,2.64-.28,3.87-.78,1.25-.53,2.34-1.25,3.28-2.2.97-.95,1.7-2.03,2.2-3.28.53-1.25.78-2.53.78-3.87s-.25-2.64-.78-3.87c-.5-1.25-1.22-2.34-2.2-3.28-.95-.97-2.03-1.7-3.28-2.2-1.22-.53-2.53-.78-3.87-.78h-130.34c-1.34,0-2.64.25-3.87.78-1.25.5-2.34,1.22-3.28,2.2-.97.95-1.7,2.03-2.2,3.28-.53,1.22-.78,2.53-.78,3.87"/>
        <path class="cls-1" d="M273.79,492.25c-1.34,0-2.64.25-3.9.78-1.22.5-2.34,1.22-3.28,2.17-.95.97-1.67,2.06-2.2,3.28-.5,1.25-.75,2.53-.75,3.9s.25,2.62.75,3.87c.53,1.22,1.25,2.34,2.2,3.28.95.95,2.06,1.67,3.28,2.2,1.25.5,2.56.75,3.9.75h35.76c1.34,0,2.64-.25,3.9-.75,1.22-.53,2.34-1.25,3.28-2.2.95-.95,1.67-2.06,2.2-3.28.5-1.25.78-2.53.78-3.87s-.28-2.64-.78-3.9c-.53-1.22-1.25-2.31-2.2-3.28-.95-.95-2.06-1.67-3.28-2.17-1.25-.53-2.56-.78-3.9-.78h-35.76Z"/>
        <path class="cls-1" d="M51.48,538.22l23.12-24.15c4.54-4.76,7.85-10.24,9.93-16.47,2.06-6.23,2.7-12.61,1.87-19.12l-4.93-40.13c-.47-3.73-.06-7.37,1.22-10.91l55.96-153.72c.67-1.84,1.78-3.4,3.34-4.62,1.53-1.2,3.31-1.92,5.26-2.11,1.89-.25,3.67,0,5.4.78,1.73.78,3.09,1.98,4.12,3.56,2.56,3.84,4.76,7.85,6.68,12.02,11.16,28.94-10.63,84.23-17.56,100.46-1.78,4.12-2.25,8.4-1.42,12.8.83,4.42,2.84,8.21,6.04,11.38,7.99,7.51,14.78,15.94,20.4,25.35,5.59,9.4,9.82,19.39,12.63,29.97,2.78,10.58,4.09,21.34,3.87,32.28-.19,10.94-1.92,21.65-5.12,32.08-.45,1.25-.64,2.56-.58,3.87.08,1.34.39,2.59.95,3.81.58,1.2,1.34,2.25,2.34,3.14.97.89,2.09,1.59,3.34,2.03,1.22.47,2.53.67,3.84.64,1.34-.05,2.62-.33,3.81-.89,1.22-.53,2.28-1.28,3.2-2.25.92-.95,1.61-2.06,2.11-3.28,1.95-6.12,3.45-12.33,4.51-18.65,1.06-6.32,1.7-12.69,1.86-19.09.17-6.4-.11-12.8-.83-19.17-.72-6.37-1.87-12.63-3.48-18.84-1.61-6.21-3.65-12.27-6.09-18.2-2.45-5.93-5.31-11.63-8.57-17.17-3.26-5.51-6.87-10.8-10.88-15.81-4.01-5.01-8.32-9.71-12.99-14.14-.5-.58-.61-1.22-.28-1.92,9.85-23.12,31.33-80.67,17.7-115.98-2.39-5.45-5.23-10.69-8.51-15.67-3.14-4.79-7.32-8.38-12.52-10.77-5.2-2.39-10.66-3.23-16.33-2.53-5.76.67-10.94,2.81-15.47,6.4-4.56,3.59-7.82,8.13-9.8,13.55l-55.96,153.74c-2.39,6.57-3.14,13.33-2.31,20.29l4.95,40.13c.45,3.51.08,6.93-1,10.27-1.11,3.37-2.89,6.32-5.34,8.85l-23.15,24.18c-.92.97-1.61,2.09-2.11,3.34-.47,1.25-.7,2.56-.67,3.9.03,1.34.31,2.62.86,3.84.53,1.22,1.31,2.31,2.28,3.23.95.95,2.06,1.64,3.31,2.11,1.25.5,2.56.72,3.89.7,1.36-.03,2.64-.31,3.87-.86,1.22-.53,2.31-1.28,3.26-2.25"/>
      </g>
    </g>
  </g>
</svg>