<svg width="46" height="46" viewBox="0 0 46 46" fill="none" xmlns="http://www.w3.org/2000/svg">
<path d="M25 22H19M21 26H19M27 18H19M31 17.8V28.2C31 29.8802 31 30.7202 30.673 31.362C30.3854 31.9265 29.9265 32.3854 29.362 32.673C28.7202 33 27.8802 33 26.2 33H19.8C18.1198 33 17.2798 33 16.638 32.673C16.0735 32.3854 15.6146 31.9265 15.327 31.362C15 30.7202 15 29.8802 15 28.2V17.8C15 16.1198 15 15.2798 15.327 14.638C15.6146 14.0735 16.0735 13.6146 16.638 13.327C17.2798 13 18.1198 13 19.8 13H26.2C27.8802 13 28.7202 13 29.362 13.327C29.9265 13.6146 30.3854 14.0735 30.673 14.638C31 15.2798 31 16.1198 31 17.8Z" stroke="#FBFBFB" stroke-width="2" stroke-linecap="round" stroke-linejoin="round"/>
</svg>
