<svg width="46" height="46" viewBox="0 0 46 46" fill="none" xmlns="http://www.w3.org/2000/svg">
<path d="M28.25 17.7422C28.25 17.0139 28.25 16.6497 28.0981 16.4489C27.9658 16.274 27.7636 16.1658 27.5447 16.1527C27.2934 16.1377 26.9904 16.3397 26.3844 16.7438L18.4977 22.0015C17.9969 22.3354 17.7465 22.5023 17.6593 22.7127C17.583 22.8966 17.583 23.1034 17.6593 23.2873C17.7465 23.4977 17.9969 23.6646 18.4977 23.9985L26.3844 29.2562C26.9904 29.6603 27.2934 29.8623 27.5447 29.8473C27.7636 29.8342 27.9658 29.726 28.0981 29.5511C28.25 29.3503 28.25 28.9862 28.25 28.2578V17.7422Z" stroke="white" stroke-width="2" stroke-linecap="round" stroke-linejoin="round"/>
</svg>
