<svg width="46" height="46" viewBox="0 0 46 46" fill="none" xmlns="http://www.w3.org/2000/svg">
<path d="M40.1001 14.729C39.927 14.4044 39.5267 14.28 39.2075 14.4531C38.883 14.6262 38.7585 15.0266 38.9316 15.3457C39.5484 16.5196 40.0298 17.7801 40.3598 19.1001C40.6736 20.3768 40.8413 21.7184 40.8413 23.1033C40.8413 24.4882 40.6844 25.727 40.3923 26.9658C40.0893 28.2479 39.6403 29.4651 39.0669 30.6066C38.9046 30.9312 39.0344 31.3315 39.359 31.4938C39.6836 31.6561 40.0839 31.5262 40.2462 31.2016C40.8683 29.9628 41.3552 28.6428 41.6798 27.2688C41.999 25.9272 42.1667 24.5314 42.1667 23.0979C42.1667 21.6643 41.9881 20.1658 41.6419 18.7809C41.2903 17.3527 40.771 15.9949 40.1001 14.7236V14.729ZM36.9896 15.178C36.8056 14.8967 36.4269 14.8156 36.1456 14.9995C35.8643 15.1834 35.7832 15.5621 35.9671 15.8434C36.6596 16.9091 37.2059 18.0722 37.5738 19.3165C37.9308 20.5174 38.1202 21.7941 38.1202 23.1141C38.1202 24.4341 37.9471 25.5972 37.6171 26.7548C37.2763 27.9504 36.7786 29.0756 36.1402 30.1089C35.9617 30.3956 36.0537 30.7689 36.3404 30.9474C36.6271 31.1259 37.0004 31.0339 37.1789 30.7472C37.8767 29.6166 38.4231 28.3886 38.791 27.0848C39.148 25.819 39.3428 24.4882 39.3428 23.1195C39.3428 21.7508 39.1318 20.2956 38.7423 18.9757C38.3366 17.6178 37.7415 16.3411 36.9841 15.1834L36.9896 15.178ZM34.3658 16.5521C34.1927 16.3249 33.8735 16.2816 33.6463 16.4547C33.4191 16.6278 33.3759 16.947 33.549 17.1742C34.1711 17.9857 34.6634 18.8999 34.9934 19.8845C35.3125 20.8366 35.4911 21.8536 35.4911 22.9193C35.4911 23.9851 35.3071 25.0454 34.9771 26.0137C34.6309 27.0145 34.117 27.945 33.4732 28.7619C33.3001 28.9837 33.338 29.3082 33.5598 29.4813C33.7816 29.6545 34.1062 29.6166 34.2793 29.3948C34.9934 28.4914 35.556 27.4581 35.9455 26.3437C36.3187 25.2672 36.5189 24.1149 36.5189 22.9193C36.5189 21.7238 36.3242 20.6148 35.9671 19.5545C35.5993 18.4617 35.0529 17.4447 34.3658 16.5467V16.5521ZM20.122 14.7507H25.2558C29.4917 14.7507 32.9214 18.4239 32.9214 22.9572C32.9214 27.4906 29.4971 31.2233 25.2667 31.2233C23.5464 31.2233 21.8802 31.2233 20.1599 31.2233L20.1274 14.7561L20.122 14.7507ZM24.5905 26.9063C27.1438 26.9496 28.6045 25.0941 28.7181 22.8869C28.8317 20.6797 27.7443 18.7268 24.5905 18.808L24.2605 18.8837V26.9117H24.5905V26.9063ZM8.16652 31.2287H3.83333L14.999 14.8264H19.1374V31.2287H14.999V29.1243H9.58928L8.16652 31.2287ZM14.9016 25.6134V21.4371L11.9641 25.6134H14.9016Z" fill="white"/>
</svg>
