<svg width="46" height="46" viewBox="0 0 46 46" fill="none" xmlns="http://www.w3.org/2000/svg">
<path d="M30.5 26.3278C30.5 27.1753 30.5 27.599 30.3288 27.8068C30.1801 27.9873 29.9557 28.0881 29.722 28.0793C29.4529 28.0692 29.1362 27.7877 28.5028 27.2247L24.759 23.8969C24.41 23.5867 24.2356 23.4316 24.1713 23.2484C24.1148 23.0876 24.1148 22.9123 24.1713 22.7515C24.2356 22.5684 24.41 22.4133 24.759 22.1031L28.5028 18.7753C29.1362 18.2122 29.4529 17.9307 29.722 17.9206C29.9557 17.9119 30.1801 18.0127 30.3288 18.1931C30.5 18.4009 30.5 18.8247 30.5 19.6722V26.3278Z" fill="white"/>
<path d="M22.25 26.3278C22.25 27.1753 22.25 27.599 22.0788 27.8068C21.9301 27.9873 21.7057 28.0881 21.472 28.0793C21.2029 28.0692 20.8862 27.7877 20.2528 27.2247L16.509 23.8969C16.16 23.5867 15.9856 23.4316 15.9213 23.2484C15.8648 23.0876 15.8648 22.9123 15.9213 22.7515C15.9856 22.5684 16.16 22.4133 16.509 22.1031L20.2528 18.7753C20.8862 18.2122 21.2029 17.9307 21.472 17.9206C21.7057 17.9119 21.9301 18.0127 22.0788 18.1931C22.25 18.4009 22.25 18.8247 22.25 19.6722V26.3278Z" fill="white"/>
<path d="M30.5 26.3278C30.5 27.1753 30.5 27.599 30.3288 27.8068C30.1801 27.9873 29.9557 28.0881 29.722 28.0793C29.4529 28.0692 29.1362 27.7877 28.5028 27.2247L24.759 23.8969C24.41 23.5867 24.2356 23.4316 24.1713 23.2484C24.1148 23.0876 24.1148 22.9123 24.1713 22.7515C24.2356 22.5684 24.41 22.4133 24.759 22.1031L28.5028 18.7753C29.1362 18.2122 29.4529 17.9307 29.722 17.9206C29.9557 17.9119 30.1801 18.0127 30.3288 18.1931C30.5 18.4009 30.5 18.8247 30.5 19.6722V26.3278Z" stroke="white" stroke-width="2" stroke-linecap="round" stroke-linejoin="round"/>
<path d="M22.25 26.3278C22.25 27.1753 22.25 27.599 22.0788 27.8068C21.9301 27.9873 21.7057 28.0881 21.472 28.0793C21.2029 28.0692 20.8862 27.7877 20.2528 27.2247L16.509 23.8969C16.16 23.5867 15.9856 23.4316 15.9213 23.2484C15.8648 23.0876 15.8648 22.9123 15.9213 22.7515C15.9856 22.5684 16.16 22.4133 16.509 22.1031L20.2528 18.7753C20.8862 18.2122 21.2029 17.9307 21.472 17.9206C21.7057 17.9119 21.9301 18.0127 22.0788 18.1931C22.25 18.4009 22.25 18.8247 22.25 19.6722V26.3278Z" stroke="white" stroke-width="2" stroke-linecap="round" stroke-linejoin="round"/>
</svg>
