<svg width="46" height="46" viewBox="0 0 46 46" fill="none" xmlns="http://www.w3.org/2000/svg">
<path d="M20 31.7331V24.3331C20 23.7731 20 23.4931 20.109 23.2791C20.2049 23.091 20.3578 22.938 20.546 22.8421C20.7599 22.7331 21.0399 22.7331 21.6 22.7331H24.4C24.9601 22.7331 25.2401 22.7331 25.454 22.8421C25.6422 22.938 25.7951 23.091 25.891 23.2791C26 23.4931 26 23.7731 26 24.3331V31.7331M22.0177 13.4972L15.2354 18.7723C14.782 19.1249 14.5553 19.3012 14.392 19.522C14.2474 19.7176 14.1396 19.9379 14.074 20.1722C14 20.4367 14 20.7239 14 21.2982V28.5331C14 29.6532 14 30.2133 14.218 30.6411C14.4097 31.0174 14.7157 31.3234 15.092 31.5152C15.5198 31.7331 16.0799 31.7331 17.2 31.7331H28.8C29.9201 31.7331 30.4802 31.7331 30.908 31.5152C31.2843 31.3234 31.5903 31.0174 31.782 30.6411C32 30.2133 32 29.6532 32 28.5331V21.2982C32 20.7239 32 20.4367 31.926 20.1722C31.8604 19.9379 31.7526 19.7176 31.608 19.522C31.4447 19.3012 31.218 19.1249 30.7646 18.7723L23.9823 13.4972C23.631 13.2239 23.4553 13.0873 23.2613 13.0348C23.0902 12.9884 22.9098 12.9884 22.7387 13.0348C22.5447 13.0873 22.369 13.2239 22.0177 13.4972Z" stroke="white" stroke-width="2" stroke-linecap="round" stroke-linejoin="round"/>
</svg>
