<svg width="46" height="46" viewBox="0 0 46 46" fill="none" xmlns="http://www.w3.org/2000/svg">
<path d="M23.75 26.3278C23.75 27.1753 23.75 27.5991 23.9212 27.8068C24.0699 27.9873 24.2943 28.0881 24.5281 28.0793C24.7971 28.0693 25.1138 27.7877 25.7472 27.2247L29.491 23.8969C29.84 23.5867 30.0144 23.4316 30.0788 23.2485C30.1352 23.0876 30.1352 22.9124 30.0788 22.7515C30.0144 22.5684 29.84 22.4133 29.491 22.1031L25.7472 18.7753C25.1138 18.2123 24.7971 17.9307 24.5281 17.9207C24.2943 17.9119 24.0699 18.0127 23.9212 18.1932C23.75 18.4009 23.75 18.8247 23.75 19.6722V26.3278Z" fill="white"/>
<path d="M15.5 26.3278C15.5 27.1753 15.5 27.5991 15.6712 27.8068C15.8199 27.9873 16.0443 28.0881 16.2781 28.0793C16.5471 28.0693 16.8638 27.7877 17.4972 27.2247L21.241 23.8969C21.59 23.5867 21.7644 23.4316 21.8287 23.2485C21.8852 23.0876 21.8852 22.9124 21.8287 22.7515C21.7644 22.5684 21.59 22.4133 21.241 22.1031L17.4972 18.7753C16.8638 18.2123 16.5471 17.9307 16.2781 17.9207C16.0443 17.9119 15.8199 18.0127 15.6712 18.1932C15.5 18.4009 15.5 18.8247 15.5 19.6722V26.3278Z" fill="white"/>
<path d="M23.75 26.3278C23.75 27.1753 23.75 27.5991 23.9212 27.8068C24.0699 27.9873 24.2943 28.0881 24.5281 28.0793C24.7971 28.0693 25.1138 27.7877 25.7472 27.2247L29.491 23.8969C29.84 23.5867 30.0144 23.4316 30.0788 23.2485C30.1352 23.0876 30.1352 22.9124 30.0788 22.7515C30.0144 22.5684 29.84 22.4133 29.491 22.1031L25.7472 18.7753C25.1138 18.2123 24.7971 17.9307 24.5281 17.9207C24.2943 17.9119 24.0699 18.0127 23.9212 18.1932C23.75 18.4009 23.75 18.8247 23.75 19.6722V26.3278Z" stroke="white" stroke-width="2" stroke-linecap="round" stroke-linejoin="round"/>
<path d="M15.5 26.3278C15.5 27.1753 15.5 27.5991 15.6712 27.8068C15.8199 27.9873 16.0443 28.0881 16.2781 28.0793C16.5471 28.0693 16.8638 27.7877 17.4972 27.2247L21.241 23.8969C21.59 23.5867 21.7644 23.4316 21.8287 23.2485C21.8852 23.0876 21.8852 22.9124 21.8287 22.7515C21.7644 22.5684 21.59 22.4133 21.241 22.1031L17.4972 18.7753C16.8638 18.2123 16.5471 17.9307 16.2781 17.9207C16.0443 17.9119 15.8199 18.0127 15.6712 18.1932C15.5 18.4009 15.5 18.8247 15.5 19.6722V26.3278Z" stroke="white" stroke-width="2" stroke-linecap="round" stroke-linejoin="round"/>
</svg>
