<svg width="46" height="46" viewBox="0 0 46 46" fill="none" xmlns="http://www.w3.org/2000/svg">
<path d="M17.75 17.7422C17.75 17.0139 17.75 16.6497 17.9019 16.4489C18.0342 16.274 18.2364 16.1658 18.4553 16.1527C18.7066 16.1377 19.0096 16.3397 19.6156 16.7438L27.5023 22.0015C28.0031 22.3354 28.2535 22.5023 28.3407 22.7127C28.417 22.8966 28.417 23.1034 28.3407 23.2873C28.2535 23.4977 28.0031 23.6646 27.5023 23.9985L19.6156 29.2562C19.0096 29.6603 18.7066 29.8623 18.4553 29.8473C18.2364 29.8342 18.0342 29.726 17.9019 29.5511C17.75 29.3503 17.75 28.9862 17.75 28.2578V17.7422Z" stroke="white" stroke-width="2" stroke-linecap="round" stroke-linejoin="round"/>
</svg>
