<svg width="46" height="46" viewBox="0 0 46 46" fill="none" xmlns="http://www.w3.org/2000/svg">
<path d="M20.3 30.875V24.215C20.3 23.711 20.3 23.4589 20.3981 23.2664C20.4844 23.0971 20.6221 22.9594 20.7914 22.8731C20.9839 22.775 21.236 22.775 21.74 22.775H24.26C24.764 22.775 25.0161 22.775 25.2086 22.8731C25.3779 22.9594 25.5156 23.0971 25.6019 23.2664C25.7 23.4589 25.7 23.711 25.7 24.215V30.875M14 20.525L22.136 14.423C22.4458 14.1906 22.6008 14.0744 22.7709 14.0297C22.9211 13.9901 23.0789 13.9901 23.2291 14.0297C23.3993 14.0744 23.5542 14.1906 23.864 14.423L32 20.525M15.8 19.175V27.995C15.8 29.0031 15.8 29.5071 15.9962 29.8922C16.1688 30.2309 16.4441 30.5062 16.7828 30.6788C17.1679 30.875 17.6719 30.875 18.68 30.875H27.32C28.3281 30.875 28.8321 30.875 29.2172 30.6788C29.5559 30.5062 29.8312 30.2309 30.0038 29.8922C30.2 29.5071 30.2 29.0031 30.2 27.995V19.175L24.728 15.071C24.1083 14.6063 23.7985 14.3739 23.4582 14.2843C23.1579 14.2052 22.8421 14.2052 22.5418 14.2843C22.2015 14.3739 21.8917 14.6063 21.272 15.071L15.8 19.175Z" stroke="white" stroke-width="2" stroke-linecap="round" stroke-linejoin="round"/>
</svg>
