<svg width="46" height="46" viewBox="0 0 46 46" fill="none" xmlns="http://www.w3.org/2000/svg">
<path d="M22.7836 23.3464V23.2794H22.6511C22.2321 23.3515 21.8077 23.3929 21.3817 23.4032C20.943 23.4179 20.5036 23.3989 20.0682 23.3464C19.7975 23.3143 19.5334 23.2447 19.2845 23.1401L19.1796 23.0885L18.7712 22.8203C18.5546 22.6789 18.3532 22.5182 18.1696 22.3406C17.9807 22.1621 17.8291 21.9522 17.7226 21.7217C17.6888 21.6426 17.6683 21.5591 17.6619 21.4741C17.6556 21.3543 17.6686 21.2343 17.7005 21.1182C17.7426 20.8995 17.8131 20.6865 17.9102 20.4838C18.0465 20.2053 18.2774 19.9768 18.567 19.8339C18.8171 19.7113 19.0913 19.6376 19.3728 19.6172C19.6117 19.6017 19.8514 19.6017 20.0903 19.6172C20.2563 19.6323 20.4231 19.5961 20.5649 19.5141C20.622 19.4786 20.6895 19.4606 20.7581 19.4625C20.9111 19.4492 21.0625 19.4233 21.2106 19.3851C21.7254 19.2418 22.2304 19.0696 22.7229 18.8693C22.7526 18.8567 22.7677 18.8626 22.7755 18.8574C22.7836 18.852 22.7836 18.8345 22.7836 18.7713V18.4102C22.7449 17.5592 22.7836 16.6978 22.8608 15.8828V15.398C22.8688 15.2684 22.8802 15.1395 22.8917 15.0108C22.9122 14.7808 22.9326 14.5515 22.9326 14.32C22.9386 14.2205 22.9475 14.1211 22.9565 14.0217C22.9721 13.8478 22.9878 13.6738 22.9878 13.4998L23.054 12.6281C23.0606 12.5384 23.0687 12.4486 23.0769 12.3589C23.0958 12.1495 23.1147 11.9401 23.1147 11.7306C23.1204 11.6671 23.1204 11.6033 23.1147 11.5398C23.1221 11.3311 23.043 11.1279 22.894 10.9724C22.8371 10.9046 22.7641 10.8501 22.6807 10.8134C22.5974 10.7767 22.5059 10.7587 22.4138 10.7609H22.2261C22.1505 10.756 22.0745 10.7656 22.0031 10.7893C21.9316 10.813 21.8661 10.8502 21.8107 10.8986C21.7553 10.947 21.7111 11.0056 21.681 11.0706C21.6509 11.1357 21.6354 11.2059 21.6356 11.2767V11.3232C21.6237 11.547 21.5923 11.7695 21.5418 11.9885C21.4046 12.7531 21.2391 13.514 21.073 14.2775C21.0453 14.405 21.0175 14.5327 20.9899 14.6604C20.9551 14.8241 20.9198 14.9877 20.8845 15.1515C20.7573 15.741 20.6299 16.3313 20.5263 16.9247C20.4913 17.1082 20.4182 17.2834 20.311 17.4405C20.2865 17.4828 20.2548 17.5211 20.2172 17.554C20.1974 17.5793 20.1721 17.6003 20.1429 17.6158C20.1137 17.6312 20.0814 17.6407 20.048 17.6436C20.0147 17.6465 19.981 17.6428 19.9493 17.6327C19.9176 17.6226 19.8885 17.6063 19.864 17.585C19.7731 17.5256 19.6967 17.4489 19.6396 17.36C19.5825 17.2712 19.5462 17.1721 19.5328 17.0692C19.4942 16.9866 19.4942 16.9041 19.4942 16.8216L19.3286 15.8777C19.2965 15.6812 19.261 15.4724 19.2262 15.2673C19.1833 15.0147 19.1414 14.7679 19.1079 14.5572C19.0472 14.1756 18.9865 13.7938 18.9202 13.4121L18.6608 11.9627C18.5998 11.6063 18.5294 11.2543 18.4583 10.8985C18.4522 10.8682 18.4462 10.8378 18.4401 10.8074C18.3908 10.6118 18.2837 10.433 18.131 10.2916C18.0485 10.1998 17.9472 10.1244 17.833 10.0698C17.7643 10.0325 17.6878 10.0095 17.6088 10.0024C17.5297 9.99526 17.4499 10.0042 17.3749 10.0285C17.17 10.0892 16.9931 10.2128 16.8727 10.3792C16.7674 10.5185 16.7239 10.6904 16.7512 10.8589V11.0137C16.7604 11.11 16.7727 11.2062 16.785 11.3025C16.8095 11.4951 16.834 11.6877 16.834 11.8802L16.9334 12.9634C16.9388 13.0382 16.9467 13.1175 16.9548 13.199C16.9712 13.3649 16.9886 13.5402 16.9886 13.7062C17.0217 14.1085 17.0548 14.516 17.0824 14.9234C17.089 15.0116 17.0971 15.0998 17.1052 15.188C17.1242 15.3938 17.1431 15.5996 17.1431 15.8055C17.1504 15.9302 17.1601 16.055 17.1699 16.1799C17.1896 16.4321 17.2093 16.685 17.2093 16.9402V17.3786C17.2176 17.4299 17.2176 17.4821 17.2093 17.5334C17.2026 17.5655 17.1826 17.5938 17.1537 17.6122C17.1247 17.6305 17.0892 17.6374 17.0548 17.6314C16.9868 17.6256 16.9219 17.6024 16.8671 17.5643C16.7208 17.4671 16.5938 17.3466 16.4918 17.2084C16.4367 17.1311 16.387 17.0537 16.3373 16.9764C16.0669 16.5431 15.8185 16.1046 15.5702 15.6662C14.9244 14.516 14.3008 13.3606 13.6771 12.2052C13.6703 12.1924 13.6635 12.1794 13.6566 12.1662C13.6356 12.1259 13.6138 12.0841 13.5888 12.0453C13.5486 11.9745 13.4866 11.9165 13.4109 11.8788C13.3352 11.8411 13.2492 11.8255 13.1639 11.8338C13.0696 11.8405 12.9794 11.8728 12.9045 11.9266C12.8617 11.9586 12.8131 11.9831 12.761 11.9989C12.6912 12.0136 12.6281 12.0484 12.5806 12.0983C12.5331 12.1483 12.5035 12.2109 12.496 12.2774C12.4878 12.3442 12.4878 12.4117 12.496 12.4785C12.527 12.6996 12.598 12.9141 12.7058 13.113C12.8382 13.3709 12.9762 13.6288 13.1142 13.8867C13.2522 14.1446 13.3901 14.4025 13.5226 14.6604C13.9972 15.5837 14.4664 16.5069 14.8748 17.456C15.0384 17.7941 15.1517 18.1517 15.2114 18.5186C15.2252 18.6213 15.2252 18.7253 15.2114 18.828C15.2103 18.8684 15.1933 18.9069 15.1639 18.9364C15.1344 18.9658 15.0943 18.9842 15.0514 18.9879C14.9504 19.0019 14.8472 18.9894 14.7533 18.9518C14.5415 18.8891 14.3512 18.7752 14.2014 18.6217C14.1785 18.597 14.1556 18.5728 14.1328 18.5488C14.0844 18.4977 14.0368 18.4474 13.9917 18.3948L12.4353 16.6772C12.405 16.6437 12.3746 16.6101 12.3443 16.5766C11.9771 16.1711 11.6077 15.7632 11.2101 15.3773C11.1813 15.3481 11.1571 15.3151 11.1384 15.2793C11.0969 15.1923 11.0255 15.1207 10.9355 15.0758C10.8455 15.031 10.7421 15.0155 10.6416 15.0318C10.5142 15.0377 10.3911 15.0765 10.2859 15.1438C10.1806 15.2112 10.0975 15.3045 10.0456 15.4134C10.0156 15.4732 10 15.5383 10 15.6043C10 15.6703 10.0156 15.7354 10.0456 15.7951C10.148 16.0322 10.2698 16.2615 10.4098 16.4812C10.8459 17.1826 11.337 17.8687 11.8338 18.5444C11.9017 18.6365 11.97 18.7286 12.0384 18.8208C12.3148 19.1934 12.5927 19.568 12.8493 19.9525C13.1354 20.3732 13.3811 20.8168 13.5833 21.2781C13.7162 21.5538 13.7982 21.8485 13.8261 22.1498C13.8503 22.5161 13.9057 22.88 13.9917 23.2381C14.1753 24.111 14.4168 24.9723 14.7147 25.8171C14.7684 25.9505 14.7928 26.0926 14.7865 26.2349C14.7822 26.2989 14.7955 26.3628 14.8251 26.4206C14.9492 26.6829 15.0969 26.9348 15.2666 27.1737C15.5134 27.5203 15.8326 27.8168 16.2049 28.0454C16.3865 28.142 16.5815 28.2149 16.7844 28.262C16.8577 28.2852 16.9373 28.2852 17.0106 28.262C17.1571 28.2224 17.3065 28.1931 17.4577 28.1743C17.7345 28.1467 18.0127 28.1347 18.2911 28.1382H19.1355C19.1685 28.1398 19.2013 28.133 19.2305 28.1184C19.2597 28.1039 19.2841 28.0822 19.301 28.0557C20.2724 26.89 21.2106 25.683 22.0992 24.4451C22.147 24.3732 22.2045 24.3073 22.2703 24.2491C22.3106 24.2153 22.3442 24.1751 22.3696 24.1305L22.7836 23.3464Z" fill="white"/>
<path d="M21.487 21.99C21.8823 21.9247 22.2833 21.8954 22.6846 21.9023C22.7368 21.9023 22.7889 21.9017 22.8404 21.9011C22.9416 21.9 23.0403 21.8989 23.1317 21.9023C23.3228 21.9076 23.5107 21.9498 23.6836 22.0261C23.7816 22.0696 23.8681 22.1328 23.9368 22.2113C24.0055 22.2898 24.0547 22.3816 24.081 22.48C24.1223 22.6602 24.1223 22.8465 24.081 23.0267C24.0268 23.2892 23.9417 23.5452 23.8271 23.7901C23.6321 24.2053 23.4091 24.6084 23.1593 24.9971C22.9038 25.4173 22.6057 25.8155 22.3088 26.212C22.2851 26.2438 22.2613 26.2755 22.2376 26.3072C21.3766 27.4471 20.4825 28.5612 19.5664 29.6651C19.2187 30.1086 18.8489 30.5522 18.4626 30.9855C18.3748 31.0763 18.3167 31.1886 18.2951 31.3093C18.2736 31.43 18.2896 31.5539 18.3411 31.6664C18.4572 31.9061 18.65 32.1061 18.8931 32.2389C18.936 32.2615 18.9845 32.2734 19.0338 32.2734C19.0831 32.2734 19.1316 32.2615 19.1745 32.2389C19.2541 32.1997 19.3267 32.1493 19.3898 32.0893C19.4111 32.0716 19.4304 32.0529 19.4495 32.0345C19.4747 32.01 19.4994 31.9861 19.5277 31.9655C19.7543 31.7789 19.9699 31.5809 20.1735 31.3724C20.8026 30.7998 21.4153 30.2118 22.0279 29.6238L23.8326 27.8907C23.8734 27.8492 23.9198 27.8128 23.9706 27.7824L24.3238 27.5915C24.3743 27.5623 24.428 27.5381 24.4839 27.5193C24.5222 27.5031 24.5642 27.496 24.6061 27.4987C24.6481 27.5014 24.6886 27.5137 24.7242 27.5347C24.7598 27.5557 24.7892 27.5846 24.8099 27.6188C24.8305 27.653 24.8418 27.6915 24.8426 27.7308C24.8481 27.765 24.8481 27.7998 24.8426 27.834C24.8401 27.8647 24.8329 27.8943 24.8259 27.9234C24.8176 27.9577 24.8095 27.9913 24.8095 28.0248C24.7684 28.1881 24.7053 28.3458 24.6218 28.4942C24.0092 29.7063 23.4573 30.903 22.9054 32.1048C22.7509 32.4323 22.595 32.7586 22.439 33.0848C22.2831 33.4111 22.1272 33.7373 21.9727 34.0648C21.9223 34.1552 21.9067 34.259 21.9285 34.3588C21.9813 34.6135 22.1184 34.8463 22.3204 35.0242C22.3911 35.0886 22.482 35.1301 22.5798 35.1429C22.7465 35.1635 22.9153 35.1635 23.082 35.1429C23.1744 35.126 23.2579 35.0805 23.3193 35.0139C23.3624 34.9646 23.3994 34.911 23.4297 34.854L23.6063 34.5342C24.4415 33.0625 25.3117 31.6062 26.2168 30.1654C26.4621 29.7632 26.7311 29.374 27.0226 28.9997C27.0401 28.9659 27.0691 28.9385 27.1051 28.9217C27.141 28.9049 27.1819 28.8997 27.2213 28.9068C27.3372 28.9275 27.3372 28.9997 27.3372 29.0719C27.3538 29.1986 27.3538 29.3268 27.3372 29.4536L27.2544 30.2531L27.1385 31.1918L27.0226 32.1048C26.9905 32.3576 26.9623 32.5961 26.9315 32.8559C26.9252 32.9089 26.9188 32.9627 26.9122 33.0178C26.8994 33.1259 26.8865 33.2347 26.8737 33.3435C26.8479 33.5614 26.8221 33.7793 26.7963 33.9926C26.7577 34.3124 26.7301 34.6322 26.7025 34.9572C26.6805 35.0836 26.6805 35.2125 26.7025 35.3389C26.726 35.459 26.7944 35.5675 26.8955 35.6449C26.9965 35.7224 27.1237 35.7638 27.2544 35.7618H27.4973C27.55 35.7633 27.6026 35.7549 27.6519 35.7372C27.7011 35.7195 27.7461 35.6928 27.7843 35.6587C27.8694 35.5857 27.9387 35.4982 27.9885 35.4008C28.0747 35.2376 28.136 35.064 28.1706 34.885C28.2267 34.6307 28.2694 34.3732 28.3117 34.1176C28.3235 34.0465 28.3352 33.9756 28.3472 33.9049L28.5624 32.6051C28.6093 32.3336 28.6508 32.0853 28.6951 31.8208C28.729 31.6179 28.7646 31.4056 28.8053 31.166C28.8991 30.6141 29.004 30.0674 29.1199 29.5206C29.1641 29.3059 29.2287 29.0953 29.313 28.8914C29.3488 28.8096 29.3971 28.7331 29.4565 28.6644C29.475 28.6394 29.4989 28.6182 29.5267 28.6024C29.5544 28.5865 29.5855 28.5763 29.6178 28.5724C29.65 28.5685 29.6828 28.571 29.714 28.5798C29.7452 28.5885 29.774 28.6033 29.7987 28.6231C29.901 28.6856 29.9856 28.7704 30.0452 28.8701C30.1048 28.9698 30.1376 29.0815 30.1409 29.1957V29.3401C30.1589 29.5374 30.1759 29.7424 30.1928 29.9453C30.2174 30.2411 30.2416 30.5325 30.2678 30.7895C30.312 31.2228 30.3561 31.6354 30.4113 32.0893C30.4665 32.5432 30.5217 32.9971 30.599 33.451C30.6285 33.6342 30.698 33.8098 30.8032 33.9668C30.8326 34.0209 30.8739 34.0685 30.9242 34.1067C30.9746 34.1449 31.033 34.1728 31.0957 34.1886C31.205 34.2146 31.319 34.2189 31.4303 34.2011C31.5415 34.1834 31.6475 34.144 31.7414 34.0855C31.7949 34.0546 31.8398 34.0124 31.8724 33.9621C31.9051 33.9119 31.9245 33.8552 31.9291 33.7966C31.9356 33.7583 31.9448 33.7204 31.9567 33.6831C31.9786 33.5929 31.9952 33.5017 32.0063 33.4098C32.0517 33.0675 32.0757 32.723 32.0781 32.3782V29.6135C32.0203 28.9905 32.0203 28.3641 32.0781 27.7411C32.1115 27.4075 32.1989 27.0805 32.3375 26.7714C32.3925 26.6554 32.4404 26.5366 32.481 26.4155C32.5761 26.1642 32.6867 25.9072 32.7989 25.6465C32.8364 25.5593 32.8741 25.4718 32.9115 25.3839C33.2795 24.5427 33.5928 23.6815 33.8497 22.8049C33.8643 22.7935 33.8617 22.7831 33.859 22.7724C33.8556 22.7589 33.852 22.7448 33.8828 22.7276C33.938 22.6966 33.938 22.6502 33.938 22.6038C33.9581 22.5274 33.9728 22.4498 33.9822 22.3717C34.0511 21.9567 34.0361 21.5333 33.938 21.1234C33.8602 20.7842 33.7101 20.4632 33.4965 20.1795C33.4396 20.1053 33.361 20.048 33.2702 20.0144C32.316 19.6282 31.4644 19.0507 30.7756 18.3226C30.7351 18.2831 30.6952 18.243 30.6554 18.2028C30.5757 18.1226 30.496 18.0424 30.4113 17.9667C30.2437 17.8111 30.027 17.7098 29.7932 17.6779H29.5669C29.2177 17.6434 28.8647 17.666 28.5238 17.7449C28.3571 17.7915 28.1845 17.8175 28.0105 17.8223H27.7953C27.5825 17.8688 27.3725 17.9256 27.1661 17.9925C25.9283 18.402 24.7284 18.9057 23.5787 19.4986C23.4594 19.5606 23.3331 19.6192 23.2081 19.6772C23.177 19.6916 23.146 19.706 23.1151 19.7204C22.3997 20.0225 21.662 20.2759 20.9075 20.4787C20.743 20.5209 20.5838 20.5797 20.4329 20.654C20.3534 20.6928 20.2676 20.719 20.179 20.7314C20.0236 20.7545 19.867 20.77 19.7099 20.7778C19.5011 20.7803 19.2928 20.7958 19.0862 20.8243C19.0065 20.8296 18.9282 20.847 18.8544 20.8758C18.8141 20.8932 18.7798 20.9207 18.7554 20.9554C18.731 20.99 18.7175 21.0304 18.7164 21.0718C18.7049 21.1588 18.7223 21.2471 18.7661 21.3246C18.8029 21.3975 18.8556 21.4625 18.9206 21.5154C19.1339 21.719 19.4032 21.8636 19.6988 21.9332H19.7485C20.3178 22.0629 20.9094 22.0822 21.487 21.99Z" fill="white"/>
<path d="M14.4001 30.1344C14.3325 30.1425 14.264 30.1279 14.2069 30.0931C13.6362 29.7834 13.1668 29.334 12.8492 28.7933C12.7885 28.685 12.7113 28.587 12.645 28.4787C12.4679 28.2156 12.3305 27.9309 12.2366 27.6327C12.2098 27.5241 12.1913 27.4138 12.1814 27.3026C12.1774 27.2412 12.1871 27.1797 12.2099 27.122C12.2327 27.0643 12.2681 27.0116 12.3139 26.9674C12.3229 26.9538 12.3364 26.9434 12.3524 26.9378C12.3684 26.9322 12.3859 26.9317 12.4022 26.9364C12.4883 26.9624 12.5686 27.0026 12.6395 27.0551C12.6597 27.075 12.6732 27.1002 12.6782 27.1273C12.7115 27.3329 12.7865 27.5307 12.8989 27.7101C13.1633 28.129 13.4681 28.5243 13.8096 28.8913C14.0288 29.1084 14.2731 29.3022 14.5381 29.469C14.578 29.4997 14.6254 29.521 14.6761 29.5309C14.6945 29.5352 14.7116 29.5435 14.726 29.5552C14.7404 29.5668 14.7516 29.5815 14.7588 29.5979C14.7805 29.6705 14.7805 29.7472 14.7588 29.8197C14.7588 29.8507 14.7257 29.8662 14.7092 29.8868C14.6508 29.9282 14.6083 29.9861 14.5878 30.0518C14.5789 30.0662 14.567 30.0786 14.5528 30.0884C14.5385 30.0982 14.5222 30.105 14.505 30.1086L14.4001 30.1344Z" fill="white"/>
<path d="M36.5151 22.1704C36.5813 22.1704 36.5923 22.093 36.6586 22.0827C36.6694 22.1373 36.6694 22.1932 36.6586 22.2478C36.6123 22.5628 36.5441 22.8746 36.4544 23.1813C36.4319 23.2656 36.3986 23.347 36.355 23.4238C36.3383 23.4609 36.316 23.4957 36.2888 23.5269C36.2401 23.5611 36.2005 23.6052 36.1729 23.6559C36.1621 23.6745 36.1461 23.69 36.1267 23.7009C36.1073 23.7118 36.0851 23.7176 36.0625 23.7178H35.8473C35.8217 23.7173 35.797 23.709 35.7771 23.6941C35.7571 23.6791 35.743 23.6585 35.7369 23.6353C35.7066 23.5516 35.7066 23.461 35.7369 23.3774C35.8641 22.9417 35.9618 22.4989 36.0294 22.0517C36.1038 21.6256 36.06 21.1888 35.9025 20.7829C35.86 20.666 35.8084 20.5522 35.7479 20.4425C35.729 20.4009 35.7192 20.3561 35.7192 20.3109C35.7192 20.2657 35.729 20.221 35.7479 20.1794C35.7521 20.147 35.7692 20.1173 35.7958 20.0963C35.8224 20.0752 35.8566 20.0644 35.8914 20.0659H36.1729C36.206 20.0659 36.2226 20.0659 36.2226 20.1072C36.2212 20.1953 36.244 20.2824 36.2888 20.3599C36.5101 20.8737 36.608 21.4265 36.5758 21.9795L36.5151 22.1704Z" fill="white"/>
<path d="M15.7358 29.5257C15.638 29.5339 15.5399 29.5141 15.4543 29.469C14.8633 29.2229 14.3569 28.8283 13.9918 28.3291C13.7181 27.9644 13.4763 27.5798 13.2688 27.1788C13.2688 27.1324 13.2246 27.0808 13.197 27.0344C13.1547 26.9471 13.145 26.849 13.1694 26.7559C13.1701 26.7378 13.1747 26.7201 13.1829 26.7037C13.1912 26.6873 13.2028 26.6727 13.2173 26.6606C13.2317 26.6486 13.2486 26.6394 13.2669 26.6336C13.2853 26.6278 13.3047 26.6255 13.324 26.6269C13.3864 26.622 13.4492 26.622 13.5116 26.6269C13.5423 26.6277 13.5717 26.6385 13.5949 26.6573C13.618 26.6761 13.6335 26.7018 13.6386 26.7301C13.7023 26.9087 13.7835 27.0814 13.8814 27.2459C13.9863 27.4522 14.1077 27.6585 14.2291 27.8545C14.2798 27.9384 14.3409 28.0163 14.4112 28.0867C14.7415 28.4362 15.1358 28.7279 15.5757 28.948C15.646 28.9877 15.7223 29.0173 15.802 29.0357C15.831 29.0422 15.8573 29.0563 15.8779 29.0765C15.8985 29.0966 15.9124 29.1219 15.9179 29.1492C15.9209 29.1973 15.9209 29.2455 15.9179 29.2936C15.9193 29.305 15.9251 29.3155 15.9343 29.3232C15.9435 29.3308 15.9553 29.335 15.9676 29.3349H16.0338C16.042 29.3351 16.05 29.3375 16.0568 29.3417C16.0637 29.3459 16.0691 29.3519 16.0726 29.3588C16.076 29.3658 16.0773 29.3735 16.0763 29.3811C16.0753 29.3888 16.0721 29.396 16.0669 29.4019C16.0567 29.4218 16.0411 29.4389 16.0218 29.4515C16.0025 29.4641 15.98 29.4719 15.9566 29.4742C15.8861 29.5014 15.8117 29.5187 15.7358 29.5257Z" fill="white"/>
<path d="M34.9255 23.2536C34.9641 23.2536 35.0028 23.2536 35.0193 23.2845C35.0359 23.3155 35.0193 23.3567 34.9752 23.3774C34.9571 23.382 34.938 23.382 34.92 23.3774C34.8396 23.3904 34.7575 23.3904 34.6771 23.3774C34.6489 23.3754 34.6221 23.3648 34.6011 23.347C34.5801 23.3292 34.5661 23.3054 34.5612 23.2794C34.5392 23.2034 34.5392 23.1232 34.5612 23.0472C34.6731 22.6046 34.7251 22.1506 34.7158 21.6958C34.7046 21.1467 34.5553 20.6078 34.2798 20.1227C34.2356 20.0453 34.2201 19.9564 34.2356 19.8699C34.2356 19.7616 34.2908 19.7203 34.4067 19.7152H34.6495C34.6705 19.7133 34.6915 19.7186 34.7087 19.7299C34.7259 19.7413 34.7382 19.758 34.7434 19.7771C34.8302 19.9603 34.9058 20.148 34.9697 20.3393C35.1634 20.9229 35.2401 21.5349 35.1959 22.1446C35.1825 22.3939 35.1511 22.642 35.1021 22.8873C35.0778 23.0215 35.017 23.1476 34.9255 23.2536Z" fill="white"/>
</svg>
